<svg xmlns="http://www.w3.org/2000/svg" viewBox="0 0 1200 450" width="100%" height="100%">
    <defs>
        <linearGradient id="bg" x1="0%" y1="0%" x2="100%" y2="100%">
            <stop offset="0%" stop-color="#030014"/>
            <stop offset="50%" stop-color="#090926"/>
            <stop offset="100%" stop-color="#050510"/>
        </linearGradient>
        <linearGradient id="accent" x1="0%" y1="0%" x2="100%" y2="0%">
            <stop offset="0%" stop-color="#3b82f6"/>
            <stop offset="100%" stop-color="#8b5cf6"/>
        </linearGradient>
        <pattern id="grid" width="40" height="40" patternUnits="userSpaceOnUse">
            <path d="M 40 0 L 0 0 0 40" fill="none" stroke="#ffffff" stroke-width="0.5" stroke-opacity="0.05"/>
            <circle cx="40" cy="40" r="1" fill="#ffffff" fill-opacity="0.1"/>
        </pattern>
        <filter id="glow">
            <feGaussianBlur stdDeviation="6" result="coloredBlur"/>
            <feMerge>
                <feMergeNode in="coloredBlur"/>
                <feMergeNode in="SourceGraphic"/>
            </feMerge>
        </filter>
        <filter id="shadow">
            <feDropShadow dx="0" dy="8" stdDeviation="12" flood-color="#000000" flood-opacity="0.6"/>
        </filter>
    </defs>
    
    <!-- Background -->
    <rect width="1200" height="450" fill="url(#bg)"/>
    <rect width="1200" height="450" fill="url(#grid)"/>
    
    <!-- Decorative Orbs -->
    <circle cx="150" cy="100" r="150" fill="#3b82f6" fill-opacity="0.1" filter="blur(60px)"/>
    <circle cx="1050" cy="350" r="200" fill="#8b5cf6" fill-opacity="0.1" filter="blur(80px)"/>
    
    <!-- Connections -->
    <g stroke="#4c6ef5" stroke-opacity="0.3" stroke-width="1.5">
        <path d="M 100 225 Q 300 50, 600 225 T 1100 225" fill="none" stroke-dasharray="4,4"/>
        <path d="M 200 400 Q 400 300, 600 225 T 1000 50" fill="none" stroke-dasharray="2,6"/>
    </g>

    <!-- Insert Logo -->
    <g transform="translate(600, 160) scale(0.18) translate(-512, -512)" filter="url(#shadow)">
        
<path d="M0 0 C5.63457172 4.57231639 9.94137276 10.53724452 12.6875 17.25 C12.6875 18.57 12.6875 19.89 12.6875 21.25 C15.15109432 22.48179716 16.75366469 22.37422452 19.50948524 22.37304783 C20.53410225 22.37503888 21.55871925 22.37702993 22.61438525 22.37908131 C24.3157185 22.37471205 24.3157185 22.37471205 26.05142212 22.37025452 C27.84870666 22.37153615 27.84870666 22.37153615 29.68229997 22.37284368 C33.0184641 22.3742104 36.35457011 22.37106846 39.69072723 22.36606562 C43.28445436 22.36176016 46.87817959 22.36320761 50.47190857 22.3639679 C56.70173191 22.36449307 62.9315448 22.36134695 69.16136551 22.35573006 C78.16871745 22.34761418 87.17606431 22.34499975 96.18341951 22.34374207 C110.79611067 22.34155169 125.40879625 22.33489197 140.02148438 22.32543945 C154.21907524 22.31626498 168.41666459 22.30918432 182.61425781 22.30493164 C183.48892207 22.30466892 184.36358633 22.30440619 185.26475556 22.30413551 C189.65254716 22.3028305 194.04033877 22.30156679 198.42813039 22.30032361 C234.84792419 22.28995143 271.26771166 22.27233349 307.6875 22.25 C308.18866333 21.01805908 308.18866333 21.01805908 308.69995117 19.76123047 C309.14314697 18.68244629 309.58634277 17.60366211 310.04296875 16.4921875 C310.48020264 15.42339355 310.91743652 14.35459961 311.36791992 13.25341797 C314.79440084 5.45460794 320.04734395 -0.119292 327.83984375 -3.75390625 C338.19070236 -7.74390203 348.36353823 -8.15779537 358.6875 -3.75 C368.28465012 1.09656081 374.81890902 8.67467013 378.1875 18.875 C380.79019883 28.70997699 380.2331629 37.79253876 375.4375 46.875 C374.54751103 48.34976558 373.63134887 49.80911027 372.6875 51.25 C372.07455078 52.19552734 372.07455078 52.19552734 371.44921875 53.16015625 C367.71961762 58.16596308 362.99665297 60.41623794 357.39453125 62.98828125 C354.5570022 64.22775041 354.5570022 64.22775041 351.6875 66.25 C351.0275 66.58 350.3675 66.91 349.6875 67.25 C349.6875 66.59 349.6875 65.93 349.6875 65.25 C348.87667969 65.29640625 348.06585937 65.3428125 347.23046875 65.390625 C335.90776831 65.75970022 327.54158962 63.3332717 318.6875 56.25 C318.07003906 56.68352783 317.45257812 57.11705566 316.81640625 57.5637207 C285.58054678 79.46626257 253.66322508 100.4090997 221.75927734 121.32080078 C212.01003604 127.71242602 202.29417978 134.1514928 192.61279297 140.64550781 C191.71834473 141.24459961 190.82389648 141.84369141 189.90234375 142.4609375 C189.13011475 142.97962402 188.35788574 143.49831055 187.56225586 144.03271484 C185.6875 145.25 185.6875 145.25 183.6875 146.25 C183.6875 147.57 183.6875 148.89 183.6875 150.25 C184.3475 150.25 185.0075 150.25 185.6875 150.25 C185.3575 151.24 185.0275 152.23 184.6875 153.25 C184.24862734 155.18718953 183.81130291 157.12473008 183.375 159.0625 C181.40949887 166.90560548 178.27754106 171.46898982 171.6875 176.25 C166.02645875 179.22275784 161.58397215 179.63655311 155.25 179.4375 C154.42306641 179.42396484 153.59613281 179.41042969 152.74414062 179.39648438 C150.7249736 179.36146992 148.70614682 179.30767562 146.6875 179.25 C146.6875 178.59 146.6875 177.93 146.6875 177.25 C146.0275 176.92 145.3675 176.59 144.6875 176.25 C144.58767822 176.90919434 144.48785645 177.56838867 144.38500977 178.24755859 C143.49095488 182.09603146 142.02844205 185.6475729 140.52734375 189.2890625 C139.89256087 190.85415967 139.25779578 192.41926405 138.62304688 193.984375 C137.62147294 196.43841593 136.61815026 198.89173316 135.61401367 201.34472656 C134.64333699 203.7202863 133.67887164 206.09829855 132.71484375 208.4765625 C132.41174789 209.21097565 132.10865204 209.94538879 131.79637146 210.70205688 C130.58152495 213.7027982 129.6875 215.98031002 129.6875 219.25 C129.0275 219.25 128.3675 219.25 127.6875 219.25 C127.52459473 219.77424561 127.36168945 220.29849121 127.19384766 220.83862305 C125.18805242 227.09017751 122.70526279 233.05660843 120.0625 239.0625 C119.25499434 240.90110861 118.45019519 242.74090887 117.6484375 244.58203125 C117.29571777 245.38358643 116.94299805 246.1851416 116.57958984 247.01098633 C115.74594464 249.10331258 115.05912658 251.02824844 114.6875 253.25 C115.80650403 255.26314939 115.80650403 255.26314939 117.5 257.125 C120.95812362 261.45565944 122.5799905 264.96004774 122.84375 270.578125 C123.95707722 275.42316011 126.04705909 277.0042928 129.875 279.9375 C130.44025391 280.39705078 131.00550781 280.85660156 131.58789062 281.33007812 C134.33908907 283.5392306 137.1357503 285.56446603 140.11328125 287.45703125 C141.38751953 288.34455078 141.38751953 288.34455078 142.6875 289.25 C142.6875 289.91 142.6875 290.57 142.6875 291.25 C143.491875 291.5903125 143.491875 291.5903125 144.3125 291.9375 C146.6875 293.25 146.6875 293.25 149.75 295.8125 C152.48955688 298.38537799 152.48955688 298.38537799 155.6875 299.25 C156.27273438 299.98734375 156.85796875 300.7246875 157.4609375 301.484375 C160.08565746 304.74455348 162.98660424 306.99837537 166.3125 309.5 C171.54106537 313.51367686 176.49609625 317.69724583 181.35546875 322.15625 C184.38554695 324.87672222 187.55412528 327.38841135 190.75 329.91015625 C194.45060651 332.8578468 198.10079677 335.86405732 201.75 338.875 C202.47558105 339.473125 203.20116211 340.07125 203.94873047 340.6875 C207.65913914 343.74742993 211.3661227 346.8114519 215.0703125 349.87890625 C216.50502396 351.06532716 217.93991776 352.25152761 219.375 353.4375 C220.41914062 354.30157471 220.41914062 354.30157471 221.484375 355.18310547 C224.90907095 358.00575398 228.35650883 360.78870607 231.8671875 363.50390625 C232.52243408 364.01091064 233.17768066 364.51791504 233.8527832 365.0402832 C235.08894761 365.99138692 236.32948486 366.93684243 237.57495117 367.87573242 C238.98150755 368.95550255 240.34026818 370.09705993 241.6875 371.25 C241.6875 371.91 241.6875 372.57 241.6875 373.25 C242.26113281 373.51296875 242.83476563 373.7759375 243.42578125 374.046875 C245.83372578 375.32778505 247.75977451 376.77786951 249.875 378.5 C250.75027344 379.21027344 251.62554688 379.92054688 252.52734375 380.65234375 C254.89887761 382.59760386 257.26400688 384.5505887 259.62890625 386.50390625 C261.06508821 387.69012349 262.50128659 388.87632084 263.9375 390.0625 C264.67250732 390.6699707 265.40751465 391.27744141 266.16479492 391.90332031 C271.17375413 396.03267618 276.24401177 400.0703965 281.36694336 404.05688477 C286.14577561 407.79015526 290.82784726 411.63439228 295.5 415.5 C305.89100744 425.59427654 305.89100744 425.59427654 318.6875 430.25 C320.7089778 429.03137063 320.7089778 429.03137063 322.8125 427.4375 C331.37420854 421.6149876 339.35921245 420.1764504 349.6875 421.25 C359.80593419 423.39797201 368.1077372 429.25122296 374.125 437.625 C379.4588909 446.44934075 380.96737297 455.67453569 379.25390625 465.81640625 C376.96768317 474.89029785 371.62050649 482.78009832 363.8203125 488 C353.9579822 493.78012032 343.07142029 495.32269141 331.875 492.5546875 C329.63116992 491.62754938 327.71479668 490.58222353 325.6875 489.25 C324.99398438 488.81429688 324.30046875 488.37859375 323.5859375 487.9296875 C314.83969757 481.93507362 310.6785346 473.85673814 306.6875 464.25 C306.3575 464.25 306.0275 464.25 305.6875 464.25 C305.6875 459.63 305.6875 455.01 305.6875 450.25 C306.6775 450.25 307.6675 450.25 308.6875 450.25 C308.58136164 447.79775306 308.58136164 447.79775306 307.6875 445.25 C306.97335937 444.9715625 306.25921875 444.693125 305.5234375 444.40625 C301.93306406 442.94240629 299.36779476 440.66016653 296.5 438.125 C295.33682995 437.11875911 294.17276069 436.11355677 293.0078125 435.109375 C292.4396582 434.61759766 291.87150391 434.12582031 291.28613281 433.61914062 C288.41656883 431.16151771 285.44933936 428.82995949 282.48828125 426.484375 C280.24531307 424.69500569 278.01584523 422.89223949 275.79296875 421.078125 C275.09598877 420.5094873 274.39900879 419.94084961 273.6809082 419.35498047 C272.30997032 418.23541543 270.93995359 417.11472106 269.57104492 415.99267578 C265.69782252 412.83234312 261.76524263 409.77837505 257.75439453 406.79492188 C254.03114743 404.011942 250.36049963 401.16126848 246.6875 398.3125 C245.93210937 397.73048828 245.17671875 397.14847656 244.3984375 396.54882812 C239.94596803 393.09472166 235.64738751 389.52078858 231.4296875 385.78393555 C229.39950362 383.9964292 227.31267037 382.29817518 225.1875 380.625 C220.09391565 376.58284361 215.0443428 372.48893265 210.00073242 368.38476562 C206.52366175 365.55535672 203.04472643 362.72839662 199.55859375 359.91015625 C192.71054543 354.36970125 185.91433102 348.78123385 179.20727539 343.07080078 C173.61593946 338.31925987 167.92605641 333.69583514 162.0703125 329.2734375 C161.24273437 328.64695312 160.41515625 328.02046875 159.5625 327.375 C158.81742188 326.82070313 158.07234375 326.26640625 157.3046875 325.6953125 C156.77101563 325.21835937 156.23734375 324.74140625 155.6875 324.25 C155.6875 323.59 155.6875 322.93 155.6875 322.25 C154.85025391 321.87681641 154.85025391 321.87681641 153.99609375 321.49609375 C151.2870577 320.03385602 149.1178568 318.28155987 146.75 316.3125 C145.78320312 315.51070312 144.81640625 314.70890625 143.8203125 313.8828125 C141.13147514 311.62880923 138.45393077 309.36160506 135.77905273 307.09106445 C133.60169032 305.24343987 131.42076693 303.40007227 129.23779297 301.55908203 C127.76119586 300.31222948 126.28869043 299.06053608 124.81640625 297.80859375 C123.94886719 297.08800781 123.08132813 296.36742187 122.1875 295.625 C121.4346875 294.99335937 120.681875 294.36171875 119.90625 293.7109375 C117.41398628 292.0699047 115.65201271 291.50341802 112.6875 291.25 C110.981443 291.93898456 109.27738653 292.64377235 107.63671875 293.4765625 C105.6875 294.25 105.6875 294.25 103.51953125 294.3359375 C100.67434788 294.46326068 99.15385602 294.77189026 96.6875 296.25 C93.81795017 300.69540651 91.7400692 305.38350823 89.61523438 310.21826172 C87.38157124 315.10998398 84.44611647 319.64276709 81.6875 324.25 C80.97479233 325.4742316 80.26395927 326.69955583 79.5546875 327.92578125 C69.22224932 345.74476655 58.29660242 363.23430546 46.6875 380.25 C46.26581543 380.87213379 45.84413086 381.49426758 45.40966797 382.13525391 C37.47226383 393.84314525 29.20814892 405.30498471 20.87646484 416.734375 C19.66505237 418.39647807 18.45474486 420.05938712 17.24560547 421.72314453 C16.10792563 423.28852834 14.96774553 424.852099 13.82470703 426.41357422 C13.31149902 427.1201416 12.79829102 427.82670898 12.26953125 428.5546875 C11.81811768 429.17327637 11.3667041 429.79186523 10.90161133 430.42919922 C9.63465008 432.32925894 8.55702367 434.13598071 7.6875 436.25 C8.50134325 438.5536095 8.50134325 438.5536095 10 440.75 C14.96104518 448.68767229 14.96532673 458.36469518 13.00390625 467.3984375 C9.62975948 477.39487232 3.63105811 484.66767979 -5.3125 490.25 C-14.48907725 494.51055372 -23.65251538 495.11513829 -33.3125 492.25 C-43.86217082 487.79159268 -50.46802509 481.88325022 -55.3671875 471.58203125 C-58.93902849 462.77050617 -58.67531363 451.55474061 -55.25 442.75 C-50.75868856 433.49137474 -44.56326154 427.72817435 -35.3125 423.25 C-33.9925 422.92 -32.6725 422.59 -31.3125 422.25 C-30.9825 380.67 -30.6525 339.09 -30.3125 296.25 C-32.2925 295.92 -34.2725 295.59 -36.3125 295.25 C-42.64520913 292.15329452 -48.70341396 287.35375175 -52.3125 281.25 C-55.19831659 272.17144395 -55.09616923 263.57161338 -51 255 C-46.84280469 247.39021876 -42.24858321 242.95096188 -34.3125 239.25 C-32.9925 239.25 -31.6725 239.25 -30.3125 239.25 C-30.3125 181.5 -30.3125 123.75 -30.3125 64.25 C-32.2925 63.92 -34.2725 63.59 -36.3125 63.25 C-46.22034253 58.40504824 -52.57243525 50.44469264 -56.3125 40.25 C-58.69034245 33.11647265 -58.47352577 23.00110913 -55.3125 16.1015625 C-54.9825 15.49054688 -54.6525 14.87953125 -54.3125 14.25 C-53.879375 13.43273437 -53.44625 12.61546875 -53 11.7734375 C-51.80363574 9.57783718 -50.57601297 7.40746088 -49.3125 5.25 C-48.6525 5.25 -47.9925 5.25 -47.3125 5.25 C-46.9721875 4.074375 -46.9721875 4.074375 -46.625 2.875 C-45.3125 0.25 -45.3125 0.25 -43.1875 -0.8125 C-42.23875 -1.121875 -41.29 -1.43125 -40.3125 -1.75 C-38.31617507 -2.75220361 -36.34515025 -3.79505581 -34.375 -4.84765625 C-23.08323057 -9.78780537 -9.77518332 -6.78883699 0 0 Z M13.6875 36.25 C10.10084261 43.51194716 10.10084261 43.51194716 11.6875 48.25 C17.74220601 54.5533292 25.95698141 59.23369336 33.16040039 64.11230469 C41.09791423 69.49414155 48.85863507 75.10320507 56.61230469 80.74511719 C59.7705322 83.03538947 62.94694298 85.29986397 66.125 87.5625 C70.0392186 90.35037215 73.93723461 93.15813871 77.8125 96 C86.34029522 102.21923527 95.02668231 108.21826137 103.6875 114.25 C104.30415527 114.67958008 104.92081055 115.10916016 105.55615234 115.55175781 C108.64905979 117.70438463 111.74767454 119.84858967 114.8515625 121.98535156 C116.24031822 122.94196787 117.62818372 123.89987671 119.015625 124.85839844 C121.5918886 126.63748231 124.17070123 128.41282 126.75 130.1875 C127.57250244 130.75605713 128.39500488 131.32461426 129.24243164 131.91040039 C130.01965576 132.4439917 130.79687988 132.97758301 131.59765625 133.52734375 C132.28996338 134.00421631 132.98227051 134.48108887 133.69555664 134.97241211 C135.63909897 136.21895666 137.60393753 137.25881332 139.6875 138.25 C140.533125 137.486875 141.37875 136.72375 142.25 135.9375 C148.10456372 131.14492691 153.50664155 129.76080982 160.96875 129.9453125 C164.91128724 130.38714857 168.03900244 131.7137905 171.6875 133.25 C175.93059042 133.25 176.79052582 132.85716454 180.1875 130.64453125 C181.0640625 130.07992187 181.940625 129.5153125 182.84375 128.93359375 C183.7821875 128.31613281 184.720625 127.69867188 185.6875 127.0625 C186.6671875 126.42828125 187.646875 125.7940625 188.65625 125.140625 C191.6723211 123.18562015 194.68035661 121.2187018 197.6875 119.25 C199.39534422 118.13857097 201.10365001 117.02785075 202.8125 115.91796875 C205.25539878 114.33099744 207.69778738 112.74329173 210.13793945 111.15209961 C217.28320664 106.49594217 224.47654744 101.9173945 231.67651367 97.34643555 C239.36005691 92.46595136 247.00860186 87.53346069 254.64306641 82.57666016 C257.44432094 80.75888883 260.24809209 78.94501959 263.05200195 77.13134766 C264.4712668 76.2132957 265.89037589 75.29500291 267.30932617 74.37646484 C270.87340945 72.06935187 274.43909073 69.76477618 278.0078125 67.46484375 C281.54445312 65.18466229 285.07660702 62.89770869 288.60449219 60.60400391 C290.00529295 59.69345057 291.40700229 58.78429362 292.80957031 57.87646484 C294.85648454 56.54905759 296.89766202 55.21324892 298.9375 53.875 C299.5454541 53.4823999 300.1534082 53.0897998 300.77978516 52.68530273 C304.55974787 50.18925141 307.60494088 47.52956477 310.6875 44.25 C310.0275 42.93 309.3675 41.61 308.6875 40.25 C308.3575 40.58 308.0275 40.91 307.6875 41.25 C307.0275 39.93 306.3675 38.61 305.6875 37.25 C307.1725 36.755 307.1725 36.755 308.6875 36.25 C211.3375 36.25 113.9875 36.25 13.6875 36.25 Z M307.6875 38.25 C308.6875 40.25 308.6875 40.25 308.6875 40.25 Z M-1.25 58.125 C-6.08956816 61.87001162 -9.09877729 63.47465065 -15.3125 65.25 C-15.3125 122.34 -15.3125 179.43 -15.3125 238.25 C-10.3625 240.725 -10.3625 240.725 -5.3125 243.25 C-2.6875 245.5625 -2.6875 245.5625 -1.3125 247.25 C2.53797942 245.44990087 6.09508921 243.19534593 9.6875 240.9375 C10.38174072 240.50236084 11.07598145 240.06722168 11.79125977 239.61889648 C20.00273406 234.45172911 28.12279629 229.14377561 36.24755859 223.84179688 C46.0052117 217.47598757 55.78752942 211.16113226 65.68212891 205.01000977 C70.42469114 202.05561723 75.12704972 199.04405401 79.8125 196 C86.37467283 191.73725521 92.96018743 187.51282291 99.5625 183.3125 C100.48281006 182.72654053 101.40312012 182.14058105 102.35131836 181.53686523 C106.95942651 178.60656243 111.57550097 175.69003152 116.20703125 172.796875 C117.0779541 172.251521 117.94887695 171.70616699 118.84619141 171.14428711 C120.49081862 170.11556152 122.13752425 169.09014872 123.78662109 168.06860352 C124.52090332 167.60897217 125.25518555 167.14934082 126.01171875 166.67578125 C126.9721106 166.07890503 126.9721106 166.07890503 127.9519043 165.4699707 C129.73972119 164.21329311 131.1914918 162.83801716 132.6875 161.25 C132.0275 161.25 131.3675 161.25 130.6875 161.25 C130.6875 159.93 130.6875 158.61 130.6875 157.25 C131.3475 157.25 132.0075 157.25 132.6875 157.25 C134.27287333 153.66705629 134.6834813 151.06876246 133.6875 147.25 C129.94239292 142.88624922 124.72954393 139.85404121 119.95703125 136.73486328 C117.8316976 135.34434271 115.73997456 133.91674589 113.65625 132.46484375 C111.02950329 130.63592994 108.39339718 128.82247281 105.74609375 127.0234375 C94.87409431 119.6177584 84.21054175 111.91559512 73.57006836 104.18286133 C68.07298721 100.2061863 62.49280715 96.36615939 56.875 92.5625 C51.46004822 88.89423656 46.14295399 85.16681571 41 81.125 C35.71830316 76.98275552 30.28319735 73.14687122 24.72924805 69.37915039 C19.41737097 65.77330582 14.19456079 62.05683344 9.02758789 58.24609375 C4.34987458 54.84664527 3.26817623 54.60805835 -1.25 58.125 Z M131.6875 158.25 C132.6875 160.25 132.6875 160.25 132.6875 160.25 Z M121.6875 186.25 C119.83238174 187.13320189 119.83238174 187.13320189 117.8203125 188.5390625 C116.63078979 189.32337646 116.63078979 189.32337646 115.41723633 190.12353516 C114.55767334 190.70151855 113.69811035 191.27950195 112.8125 191.875 C110.98581499 193.0835418 109.15898812 194.29186921 107.33203125 195.5 C106.39439941 196.12390625 105.45676758 196.7478125 104.49072266 197.390625 C100.18047081 200.24961107 95.8401474 203.06169769 91.5 205.875 C89.83324823 206.95820239 88.16658071 208.04153444 86.5 209.125 C80.60913895 212.95170334 74.71191863 216.76853768 68.8125 220.58203125 C66.08153235 222.34749878 63.35245966 224.11583689 60.625 225.88671875 C53.62852689 230.42643411 46.61516411 234.93653582 39.56982422 239.40014648 C31.46390749 244.53810461 23.38142774 249.70799987 15.375 255 C14.61002197 255.50136475 13.84504395 256.00272949 13.05688477 256.51928711 C12.36135498 256.98214111 11.6658252 257.44499512 10.94921875 257.921875 C10.34037842 258.3250293 9.73153809 258.72818359 9.10424805 259.14355469 C7.52776735 260.21141524 7.52776735 260.21141524 6.6875 262.25 C16.11896089 262.41227334 25.54994055 262.53660925 34.9824934 262.6126852 C39.36261018 262.64920068 43.74177122 262.69871695 48.12133789 262.77807617 C52.34892965 262.85420112 56.575603 262.89600298 60.80382729 262.9141407 C62.41588108 262.92706365 64.0278852 262.95230103 65.63954735 262.9901104 C74.13200734 263.56657427 74.13200734 263.56657427 81.72499084 260.70506287 C83.27349762 258.63070063 83.27349762 258.63070063 84.6875 255.25 C87.22265625 253.54296875 87.22265625 253.54296875 89.75 252.4375 C90.58660156 252.05980469 91.42320312 251.68210937 92.28515625 251.29296875 C93.79912807 250.63568343 95.32693919 250.00863744 96.87109375 249.42578125 C99.39592473 247.7914283 99.64549797 246.05341167 100.6875 243.25 C101.49584264 241.28788377 102.30730472 239.32705111 103.12109375 237.3671875 C103.60030273 236.21178467 104.07951172 235.05638184 104.57324219 233.8659668 C104.95289124 232.95081802 104.95289124 232.95081802 105.34020996 232.0171814 C111.51880828 217.12016665 117.62130687 202.19315214 123.6875 187.25 C122.6975 186.755 122.6975 186.755 121.6875 186.25 Z M5.6875 278.25 C4.53299813 280.23301392 4.53299813 280.23301392 3.5 282.5 C0.81099218 287.55306001 -2.53815249 290.22850624 -7.3125 293.25 C-8.240625 293.86875 -9.16875 294.4875 -10.125 295.125 C-12.3125 296.25 -12.3125 296.25 -15.3125 296.25 C-15.3125 337.83 -15.3125 379.41 -15.3125 422.25 C-5.01762821 427.44230769 -5.01762821 427.44230769 -0.3125 427.25 C1.43381606 425.35532435 2.96052692 423.492173 4.5 421.4375 C4.97501953 420.8172998 5.45003906 420.19709961 5.93945312 419.55810547 C7.53463927 417.46455197 9.11239927 415.35870056 10.6875 413.25 C11.25001465 412.50089355 11.8125293 411.75178711 12.39208984 410.97998047 C20.43119343 400.25442581 28.20128122 389.36789209 35.6875 378.25 C36.10451172 377.63205566 36.52152344 377.01411133 36.95117188 376.37744141 C39.88863114 372.01822436 42.7937467 367.63831685 45.6875 363.25 C46.10435059 362.62109863 46.52120117 361.99219727 46.95068359 361.34423828 C61.83931507 338.84371585 75.95654576 315.57027099 87.6875 291.25 C86.6975 290.92 85.7075 290.59 84.6875 290.25 C83.6875 288.5 83.6875 288.5 82.6875 286.25 C82.171875 285.404375 81.65625 284.55875 81.125 283.6875 C79.6875 281.25 79.6875 281.25 78.6875 278.25 C75.85778522 276.83514261 73.43009078 277.07009485 70.26586914 277.01293945 C69.60715317 276.99982727 68.94843719 276.98671509 68.26976013 276.97320557 C66.08745169 276.93135095 63.90510651 276.89687663 61.72265625 276.86328125 C60.20812258 276.8376298 58.69359114 276.81184578 57.17906189 276.78593445 C54.00231346 276.732936 50.82553056 276.68401466 47.64868164 276.63745117 C43.57508306 276.57706843 39.50186568 276.50284616 35.42856693 276.42507648 C32.30001718 276.36751291 29.1713745 276.31919855 26.04263115 276.273489 C24.54065895 276.25006413 23.03873497 276.22330461 21.5368824 276.19317055 C19.43744373 276.15205728 17.33820954 276.12384937 15.23852539 276.09887695 C14.04320694 276.07968704 12.84788849 276.06049713 11.61634827 276.04072571 C8.49529663 276.02136612 8.49529663 276.02136612 5.6875 278.25 Z " fill="#2F2F2F" transform="translate(350.3125,260.75)"/>
<path d="M0 0 C1.34762745 0.00113916 1.34762745 0.00113916 2.7224797 0.00230134 C3.75754689 -0.00168076 4.79261408 -0.00566286 5.85904694 -0.00976562 C7.00494195 -0.00393994 8.15083696 0.00188574 9.33145607 0.00788796 C10.54189641 0.00617911 11.75233676 0.00447026 12.99945712 0.00270963 C16.36989021 -0.00002392 19.74009319 0.00626011 23.11049855 0.01626575 C26.74103588 0.02487649 30.37156569 0.02198178 34.00211036 0.0204612 C40.29578937 0.01941084 46.58942702 0.02570319 52.88309562 0.03693688 C61.98275661 0.05316849 71.08239753 0.05839748 80.18207143 0.06091286 C94.94451397 0.06529365 109.70693445 0.07861313 124.469365 0.09751809 C138.81246283 0.11586698 153.15555468 0.13002832 167.49866188 0.13853371 C168.82409974 0.13932188 168.82409974 0.13932188 170.17631413 0.14012598 C174.60905792 0.14273599 179.04180174 0.14526342 183.4745456 0.14774978 C220.26759343 0.16849422 257.06061617 0.20373016 293.85364234 0.24839699 C293.85364234 1.23839699 293.85364234 2.22839699 293.85364234 3.24839699 C280.12205635 4.65067075 266.34581012 4.38170215 252.56116188 4.36192238 C249.80051096 4.3610811 247.03986089 4.36175537 244.27920997 4.36236489 C238.35898973 4.36288658 232.4387806 4.35977706 226.51856315 4.35412705 C217.95916134 4.34596367 209.39976484 4.34339189 200.84035955 4.34213906 C186.94976458 4.33995611 173.05917552 4.33331662 159.16858375 4.32383645 C145.68355801 4.3146427 132.19853387 4.30757148 118.71350563 4.30332863 C117.88082499 4.30306591 117.04814436 4.30280319 116.19023098 4.3025325 C112.01247992 4.30122736 107.83472885 4.29996368 103.65697777 4.2987206 C69.05586175 4.28837157 34.4547526 4.27077394 -0.14635766 4.24839699 C-1.13635766 6.55839699 -2.12635766 8.86839699 -3.14635766 11.24839699 C-4.22709617 8.00618145 -4.36312174 5.64436763 -4.14635766 2.24839699 C-2.14635766 0.24839699 -2.14635766 0.24839699 0 0 Z " fill="#414141" transform="translate(365.1463576555252,293.7516030073166)"/>
<path d="M0 0 C3 1 3 1 5 4 C5.33 3.34 5.66 2.68 6 2 C6.99 2 7.98 2 9 2 C7.71632447 5.41786142 6.23663131 8.45433208 4.3125 11.5546875 C3.78325928 12.41006104 3.25401855 13.26543457 2.70874023 14.14672852 C2.14485596 15.04705811 1.58097168 15.9473877 1 16.875 C0.4212915 17.80304443 -0.15741699 18.73108887 -0.75366211 19.68725586 C-4.29960265 25.34953477 -7.88330562 30.98577948 -11.5625 36.5625 C-11.95501953 37.16239746 -12.34753906 37.76229492 -12.75195312 38.38037109 C-14.89596447 41.58802758 -17.03046713 44.51628028 -20 47 C-20.99 47 -21.98 47 -23 47 C-26.32964768 47.9391314 -27.75899596 48.69680136 -29.9375 51.4375 C-32.32009388 54.39769239 -34.54607459 55.50853221 -38 57 C-36.44536271 53.68084938 -34.54929656 50.72365044 -32.5 47.6875 C-31.42685547 46.09035156 -31.42685547 46.09035156 -30.33203125 44.4609375 C-29.95127441 43.89600586 -29.57051758 43.33107422 -29.17822266 42.74902344 C-23.4421415 34.23404512 -17.76673092 25.68115561 -12.1875 17.0625 C-11.74365967 16.37712158 -11.29981934 15.69174316 -10.8425293 14.9855957 C-9.08049819 12.25631777 -7.32202322 9.53009976 -5.63525391 6.75341797 C-5.19487793 6.02912598 -4.75450195 5.30483398 -4.30078125 4.55859375 C-3.90673096 3.90044678 -3.51268066 3.2422998 -3.10668945 2.56420898 C-2 1 -2 1 0 0 Z " fill="#353535" transform="translate(413,598)"/>
<path d="M0 0 C5.1239751 0.46047195 8.3275701 3.0789325 12.3125 6.0625 C12.95767578 6.53494141 13.60285156 7.00738281 14.26757812 7.49414062 C15.85070051 8.65509704 17.42613569 9.82652336 19 11 C16.53721199 12.231394 14.7204945 12.07159196 12 12 C12.33 14.31 12.66 16.62 13 19 C8.66508068 17.51213344 5.35590995 15.29029201 1.6875 12.5625 C0.86282227 11.96985352 0.86282227 11.96985352 0.02148438 11.36523438 C-1.55078125 10.19140625 -1.55078125 10.19140625 -4 8 C-4 7.01 -4 6.02 -4 5 C-3.01 4.67 -2.02 4.34 -1 4 C-0.26676204 1.98491642 -0.26676204 1.98491642 0 0 Z " fill="#353534" transform="translate(414,348)"/>
<path d="M0 0 C23.76 0 47.52 0 72 0 C72 0.99 72 1.98 72 3 C63.05517921 2.91567087 54.11055036 2.82081675 45.16598797 2.71247292 C41.01279232 2.6624979 36.85962227 2.61616806 32.70629883 2.578125 C28.69913073 2.54128727 24.69217606 2.49493164 20.6851902 2.44193649 C19.15540112 2.42338445 17.62556627 2.40827947 16.09570885 2.39665604 C13.9551031 2.37980716 11.81498701 2.3507764 9.67456055 2.31884766 C7.84588692 2.29886215 7.84588692 2.29886215 5.98027039 2.2784729 C3 2 3 2 0 0 Z " fill="#5A5959" transform="translate(357,536)"/>
<path d="M0 0 C8.89416188 2.07059853 15.69280528 6.51974201 22 13 C21.67 13.66 21.34 14.32 21 15 C18.0625 13.6875 18.0625 13.6875 15 12 C14.67 11.01 14.34 10.02 14 9 C12.68 9.33 11.36 9.66 10 10 C9.67 8.68 9.34 7.36 9 6 C2.39529892 4.20889462 -3.43797836 3.86902375 -10.27734375 4.125 C-13 4 -13 4 -15 2 C-10.27691377 -1.14872415 -5.52855254 -0.52904809 0 0 Z " fill="#343535" transform="translate(335,254)"/>
<path d="M0 0 C0.33 0 0.66 0 1 0 C0.67 7.26 0.34 14.52 0 22 C-0.66 22 -1.32 22 -2 22 C-1.01 25.3 -0.02 28.6 1 32 C-2.59722525 29.48194232 -3.47204636 26.95100966 -4.3125 22.8125 C-5.62855263 13.89653986 -4.40851719 7.82156276 0 0 Z " fill="#454544" transform="translate(301,513)"/>
<path d="M0 0 C0.69867187 0.07089844 1.39734375 0.14179688 2.1171875 0.21484375 C2.7771875 1.20484375 3.4371875 2.19484375 4.1171875 3.21484375 C2.1371875 3.87484375 0.1571875 4.53484375 -1.8828125 5.21484375 C-1.8828125 5.87484375 -1.8828125 6.53484375 -1.8828125 7.21484375 C-2.5428125 7.21484375 -3.2028125 7.21484375 -3.8828125 7.21484375 C-3.8828125 6.55484375 -3.8828125 5.89484375 -3.8828125 5.21484375 C-4.76324219 5.24964844 -5.64367187 5.28445313 -6.55078125 5.3203125 C-7.71222656 5.34738281 -8.87367188 5.37445313 -10.0703125 5.40234375 C-11.79314453 5.45455078 -11.79314453 5.45455078 -13.55078125 5.5078125 C-17.15320449 5.19106954 -18.97648089 4.30017773 -21.8828125 2.21484375 C-18.26318632 1.00830169 -14.78419541 0.8598747 -11.0078125 0.65234375 C-9.94626953 0.58756836 -9.94626953 0.58756836 -8.86328125 0.52148438 C-4.43024281 0.28408641 -4.43024281 0.28408641 0 0 Z " fill="#3E3E3E" transform="translate(703.8828125,320.78515625)"/>
<path d="M0 0 C0.66 0.66 1.32 1.32 2 2 C2.99 2 3.98 2 5 2 C9.54148224 6.64685306 12.96319794 12.29081212 16 18 C9.61547803 16.25876673 5.2637693 11.00002738 1.5625 5.75 C0 3 0 3 0 0 Z " fill="#3D3D3C" transform="translate(296,304)"/>
<path d="M0 0 C0.66 0.33 1.32 0.66 2 1 C-3.88449504 7.11987484 -8.82553845 11.41859109 -17 14 C-17.66 13.34 -18.32 12.68 -19 12 C-15.88327524 9.9661749 -12.75539064 7.95021524 -9.625 5.9375 C-8.73554688 5.35677734 -7.84609375 4.77605469 -6.9296875 4.17773438 C-6.07890625 3.63310547 -5.228125 3.08847656 -4.3515625 2.52734375 C-3.56604004 2.01937256 -2.78051758 1.51140137 -1.97119141 0.98803711 C-1.32069824 0.66198486 -0.67020508 0.33593262 0 0 Z " fill="#373636" transform="translate(477,426)"/>
<path d="M0 0 C-0.99 0.495 -0.99 0.495 -2 1 C-1.67 1.66 -1.34 2.32 -1 3 C-8.01908338 5.63215627 -14.65244332 6.7634136 -22 5 C-22.66 4.01 -23.32 3.02 -24 2 C-23.03578125 2.02320313 -22.0715625 2.04640625 -21.078125 2.0703125 C-19.81484375 2.08835937 -18.5515625 2.10640625 -17.25 2.125 C-15.37054688 2.15980469 -15.37054688 2.15980469 -13.453125 2.1953125 C-10.19752845 2.01117242 -8.71177524 1.64905251 -6 0 C-3 -1 -3 -1 0 0 Z " fill="#3B3A3A" transform="translate(343,749)"/>
<path d="M0 0 C0.66 0.33 1.32 0.66 2 1 C1.67 1.66 1.34 2.32 1 3 C0.34 3 -0.32 3 -1 3 C-1 3.99 -1 4.98 -1 6 C-7.93 9.465 -7.93 9.465 -15 13 C-15.66 12.34 -16.32 11.68 -17 11 C-14.21681883 9.13284189 -11.42220667 7.28356646 -8.625 5.4375 C-7.8309375 4.90447266 -7.036875 4.37144531 -6.21875 3.82226562 C-5.45820312 3.32275391 -4.69765625 2.82324219 -3.9140625 2.30859375 C-2.8614624 1.60947876 -2.8614624 1.60947876 -1.78759766 0.89624023 C-1.19769043 0.60048096 -0.6077832 0.30472168 0 0 Z " fill="#3D3C3C" transform="translate(593,350)"/>
<path d="M0 0 C1.08114045 3.21478186 1.02228407 4.87861637 -0.4375 7.9375 C-2.88615641 12.56658545 -6.42194906 14.68875098 -11 17 C-9.3189585 13.3650778 -7.16668 10.13401865 -4.9375 6.8125 C-4.22464844 5.74644531 -3.51179688 4.68039062 -2.77734375 3.58203125 C-1 1 -1 1 0 0 Z " fill="#3E3E3E" transform="translate(386,638)"/>
<path d="M0 0 C4.21942867 0.37230253 6.32715026 1.93195932 9.44140625 4.72265625 C11.74068309 6.60702599 14.30500566 7.78083589 17 9 C17 10.32 17 11.64 17 13 C13.06830895 13 11.83572772 11.60580385 9 9 C9 8.34 9 7.68 9 7 C8.443125 6.773125 7.88625 6.54625 7.3125 6.3125 C4.36753316 4.64103234 2.31843456 2.44723648 0 0 Z " fill="#3F3E3E" transform="translate(497,576)"/>
<path d="M0 0 C7.17659511 1.05054214 13.24834617 5.62856523 18 11 C17.67 11.66 17.34 12.32 17 13 C14.0625 11.6875 14.0625 11.6875 11 10 C10.67 9.01 10.34 8.02 10 7 C8.68 7.33 7.36 7.66 6 8 C5.896875 7.360625 5.79375 6.72125 5.6875 6.0625 C5.3471875 5.0415625 5.3471875 5.0415625 5 4 C4.01 3.67 3.02 3.34 2 3 C2 2.34 2 1.68 2 1 C1.34 0.67 0.68 0.34 0 0 Z " fill="#464746" transform="translate(339,256)"/>
<path d="M0 0 C1.32 0.33 2.64 0.66 4 1 C-4.91 6.94 -4.91 6.94 -14 13 C-14.66 12.67 -15.32 12.34 -16 12 C-15.67 11.34 -15.34 10.68 -15 10 C-14.01 10 -13.02 10 -12 10 C-11.7525 9.236875 -11.505 8.47375 -11.25 7.6875 C-9.85038832 4.67833489 -8.89790845 3.5731503 -6 2 C-3.25 1.8125 -3.25 1.8125 -1 2 C-0.67 1.34 -0.34 0.68 0 0 Z " fill="#494949" transform="translate(417,480)"/>
<path d="M0 0 C4.12678821 1.44098089 7.30186428 3.47299494 10.8125 6.0625 C11.78832031 6.77535156 12.76414062 7.48820312 13.76953125 8.22265625 C14.50558594 8.80917969 15.24164063 9.39570313 16 10 C16 10.33 16 10.66 16 11 C14.02 11 12.04 11 10 11 C9.67 10.01 9.34 9.02 9 8 C7.67511887 7.63451555 6.33981486 7.3062434 5 7 C2.43701668 5.46221001 1.22947811 4.66931115 0.25 1.8125 C0.1675 1.214375 0.085 0.61625 0 0 Z " fill="#3F3F3F" transform="translate(471,387)"/>
<path d="M0 0 C0.66 0.33 1.32 0.66 2 1 C2 3 2 3 0.57421875 4.4375 C-0.04839844 4.953125 -0.67101562 5.46875 -1.3125 6 C-1.92738281 6.515625 -2.54226563 7.03125 -3.17578125 7.5625 C-4.72667297 8.78461596 -6.35707829 9.90471886 -8 11 C-10.6875 10.625 -10.6875 10.625 -13 10 C-9.28249221 5.79759989 -4.68339021 3.00217321 0 0 Z " fill="#3E3D3D" transform="translate(563,369)"/>
<path d="M0 0 C1.20446777 0.01047363 2.40893555 0.02094727 3.64990234 0.03173828 C5.60283203 0.04140625 5.60283203 0.04140625 7.59521484 0.05126953 C8.9754258 0.06798149 10.35563413 0.08491139 11.73583984 0.10205078 C13.12385436 0.11208072 14.51187574 0.12120655 15.89990234 0.12939453 C19.3037201 0.15303215 22.70719491 0.18598211 26.11083984 0.22705078 C26.11083984 0.55705078 26.11083984 0.88705078 26.11083984 1.22705078 C18.19083984 1.55705078 10.27083984 1.88705078 2.11083984 2.22705078 C1.78083984 2.88705078 1.45083984 3.54705078 1.11083984 4.22705078 C0.45083984 4.22705078 -0.20916016 4.22705078 -0.88916016 4.22705078 C-1.87916016 6.53705078 -2.86916016 8.84705078 -3.88916016 11.22705078 C-4.96989867 7.98483523 -5.10592424 5.62302141 -4.88916016 2.22705078 C-2.88916016 0.22705078 -2.88916016 0.22705078 0 0 Z " fill="#383938" transform="translate(365.88916015625,293.77294921875)"/>
<path d="M0 0 C0.33 0 0.66 0 1 0 C1 6.6 1 13.2 1 20 C0.01 19.34 -0.98 18.68 -2 18 C-2.22107787 15.2114711 -2.28107535 12.65346819 -2.1875 9.875 C-2.17396484 9.12089844 -2.16042969 8.36679687 -2.14648438 7.58984375 C-2.11109985 5.72625873 -2.05729167 3.86304022 -2 2 C-1.34 2 -0.68 2 0 2 C0 1.34 0 0.68 0 0 Z " fill="#3D3D3D" transform="translate(295,708)"/>
<path d="M0 0 C1.75570312 0.01353516 1.75570312 0.01353516 3.546875 0.02734375 C4.43890625 0.03894531 5.3309375 0.05054688 6.25 0.0625 C6.25 0.7225 6.25 1.3825 6.25 2.0625 C6.91 2.3925 7.57 2.7225 8.25 3.0625 C7.08984375 3.04509766 7.08984375 3.04509766 5.90625 3.02734375 C-0.08936364 2.97540155 -5.82302983 3.15065844 -11.75 4.0625 C-11.42 3.0725 -11.09 2.0825 -10.75 1.0625 C-7.32735681 -0.36360133 -3.65120467 -0.03651205 0 0 Z " fill="#3E3E3D" transform="translate(693.75,681.9375)"/>
<path d="M0 0 C4.78775956 3.53613714 9.46451416 7.14483704 14 11 C12.02 11.99 12.02 11.99 10 13 C9.38125 12.195625 8.7625 11.39125 8.125 10.5625 C6.25835959 7.96125481 6.25835959 7.96125481 4 7 C4 6.34 4 5.68 4 5 C2.35 4.67 0.7 4.34 -1 4 C-0.67 2.68 -0.34 1.36 0 0 Z " fill="#383837" transform="translate(473,535)"/>
<path d="M0 0 C3.75730247 1.6281644 6.616823 4.01401917 9.75 6.625 C11.22726562 7.85089844 11.22726562 7.85089844 12.734375 9.1015625 C13.85585938 10.04128906 13.85585938 10.04128906 15 11 C11.98968256 11.93423645 11.13349732 12.04449911 8 11 C8 10.01 8 9.02 8 8 C7.401875 7.71125 6.80375 7.4225 6.1875 7.125 C1.17741935 4.5483871 1.17741935 4.5483871 0.3125 1.875 C0.209375 1.25625 0.10625 0.6375 0 0 Z " fill="#434342" transform="translate(644,676)"/>
<path d="M0 0 C3.25 -0.375 3.25 -0.375 7 0 C11 4.71794872 11 4.71794872 11 8 C11.33 8.66 11.66 9.32 12 10 C8.78727751 8.56006357 6.3793336 6.76981628 3.75 4.4375 C3.04359375 3.81746094 2.3371875 3.19742188 1.609375 2.55859375 C1.07828125 2.04425781 0.5471875 1.52992188 0 1 C0 0.67 0 0.34 0 0 Z " fill="#474847" transform="translate(536,608)"/>
<path d="M0 0 C0.66 0.33 1.32 0.66 2 1 C-1.72222642 5.07118515 -5.84842971 8.84924501 -11 11 C-12.32 10.67 -13.64 10.34 -15 10 C-10.05 6.7 -5.1 3.4 0 0 Z " fill="#414141" transform="translate(381,487)"/>
<path d="M0 0 C0.556875 0.226875 1.11375 0.45375 1.6875 0.6875 C-4.13572176 6.66396444 -4.13572176 6.66396444 -8.4375 6.75 C-9.38625 6.729375 -10.335 6.70875 -11.3125 6.6875 C-4.51779801 -0.61051325 -4.51779801 -0.61051325 0 0 Z " fill="#3C3D3D" transform="translate(430.3125,457.3125)"/>
<path d="M0 0 C2.99220268 1.36370299 5.29026529 2.94908083 7.75 5.125 C8.67039062 5.93324219 8.67039062 5.93324219 9.609375 6.7578125 C10.06828125 7.16773438 10.5271875 7.57765625 11 8 C10.01 8.66 9.02 9.32 8 10 C1.29540481 5.88621444 1.29540481 5.88621444 0.0625 2.1875 C0.0315625 1.1046875 0.0315625 1.1046875 0 0 Z " fill="#424242" transform="translate(618,655)"/>
<path d="M0 0 C0.66 0.33 1.32 0.66 2 1 C2 1.99 2 2.98 2 4 C-0.59375835 5.55754223 -3.14731103 6.97703944 -6 8 C-9 7.25 -9 7.25 -11 6 C-8.66460191 4.44306794 -6.42031244 3.09799354 -3.9375 1.8125 C-2.89916016 1.26529297 -2.89916016 1.26529297 -1.83984375 0.70703125 C-1.23269531 0.47371094 -0.62554688 0.24039063 0 0 Z " fill="#373736" transform="translate(712,745)"/>
<path d="M0 0 C3.39192363 0.59283621 5.2107757 1.76743189 7.75 4.0625 C8.67039062 4.88427734 8.67039062 4.88427734 9.609375 5.72265625 C10.29773438 6.35494141 10.29773438 6.35494141 11 7 C9.19921875 7.60546875 9.19921875 7.60546875 7 8 C1.40329218 5.03703704 1.40329218 5.03703704 0.125 1.75 C0.08375 1.1725 0.0425 0.595 0 0 Z " fill="#3C3B3B" transform="translate(579,624)"/>
<path d="M0 0 C3.90096055 0.56816832 6.53869634 1.69246423 9.8125 3.875 C10.60269531 4.38804687 11.39289063 4.90109375 12.20703125 5.4296875 C12.79871094 5.94789063 13.39039063 6.46609375 14 7 C14 7.99 14 8.98 14 10 C10.67312232 8.45315734 7.75296022 6.54045021 4.75 4.4375 C3.85796875 3.81746094 2.9659375 3.19742187 2.046875 2.55859375 C1.37140625 2.04425781 0.6959375 1.52992188 0 1 C0 0.67 0 0.34 0 0 Z " fill="#3F3E3D" transform="translate(451,384)"/>
<path d="M0 0 C2.99220268 1.36370299 5.29026529 2.94908083 7.75 5.125 C8.67039062 5.93324219 8.67039062 5.93324219 9.609375 6.7578125 C10.06828125 7.16773438 10.5271875 7.57765625 11 8 C8 9 8 9 4.9375 7.75 C2 6 2 6 0 3 C0 2.01 0 1.02 0 0 Z " fill="#414140" transform="translate(551,600)"/>
<path d="M0 0 C4.94881287 0.44989208 8.36347798 2.77586708 12 6 C13.4375 8.3125 13.4375 8.3125 14 10 C10.67312232 8.45315734 7.75296022 6.54045021 4.75 4.4375 C3.85796875 3.81746094 2.9659375 3.19742187 2.046875 2.55859375 C1.37140625 2.04425781 0.6959375 1.52992188 0 1 C0 0.67 0 0.34 0 0 Z " fill="#454444" transform="translate(410,355)"/>
<path d="M0 0 C0.66 0.33 1.32 0.66 2 1 C1.875 2.75 1.875 2.75 1 5 C-1.96049529 7.25255076 -4.4680368 8.82267893 -8 10 C-6.44303593 6.17836093 -3.96591316 3.81381505 -1 1 C-0.67 0.67 -0.34 0.34 0 0 Z " fill="#3C3C3C" transform="translate(310,503)"/>
<path d="M0 0 C5.28 0 10.56 0 16 0 C15.67 0.99 15.34 1.98 15 3 C11.85069107 4.04976964 9.61185544 4.10131595 6.3125 4.0625 C5.31863281 4.05347656 4.32476562 4.04445313 3.30078125 4.03515625 C2.16189453 4.01775391 2.16189453 4.01775391 1 4 C1.66 3.34 2.32 2.68 3 2 C2.01 1.34 1.02 0.68 0 0 Z " fill="#4A4948" transform="translate(503,436)"/>
<path d="M0 0 C0 0.33 0 0.66 0 1 C-2.64 1 -5.28 1 -8 1 C-8 1.66 -8 2.32 -8 3 C-13.94 3.495 -13.94 3.495 -20 4 C-19 2 -19 2 -15.625 0.875 C-10.44216077 -0.33118804 -5.28995413 -0.17503525 0 0 Z " fill="#5B5B5B" transform="translate(699,254)"/>
<path d="M0 0 C0.66 0.33 1.32 0.66 2 1 C-1.08065427 4.25669165 -3.89806503 7.10679924 -8 9 C-9.32 8.67 -10.64 8.34 -12 8 C-8.04 5.36 -4.08 2.72 0 0 Z " fill="#403F3F" transform="translate(613,337)"/>
<path d="M0 0 C0.66 0.33 1.32 0.66 2 1 C-2 8.71428571 -2 8.71428571 -6 10 C-6.33 9.01 -6.66 8.02 -7 7 C-4.66666667 4.66666667 -2.33333333 2.33333333 0 0 Z " fill="#404041" transform="translate(673,260)"/>
<path d="M0 0 C1.27310312 0.93441535 2.543388 1.87267111 3.8125 2.8125 C4.52019531 3.33457031 5.22789062 3.85664062 5.95703125 4.39453125 C7.78531393 5.83128877 9.39896688 7.31815763 11 9 C6.7837853 8.75675684 4.64516511 8.62862242 1.5625 5.625 C0 3 0 3 0 0 Z " fill="#464544" transform="translate(593,634)"/>
<path d="M0 0 C0.66 0.33 1.32 0.66 2 1 C2 1.66 2 2.32 2 3 C1.071875 3.4021875 1.071875 3.4021875 0.125 3.8125 C-2.2995233 4.95556848 -2.2995233 4.95556848 -4 8 C-5.65 7.67 -7.3 7.34 -9 7 C-6.3765992 4.08511023 -3.28183606 2.11496102 0 0 Z " fill="#414141" transform="translate(574,362)"/>
<path d="M0 0 C2.8097586 1.36077995 5.47615865 2.84825102 8.125 4.5 C8.80820312 4.9228125 9.49140625 5.345625 10.1953125 5.78125 C12 7 12 7 14 9 C11.3125 9.3125 11.3125 9.3125 8 9 C4.83202825 6.34774458 2.37251223 3.37146475 0 0 Z " fill="#252524" transform="translate(669,742)"/>
<path d="M0 0 C0.66 0.33 1.32 0.66 2 1 C0.02 3.31 -1.96 5.62 -4 8 C-5.65 7.67 -7.3 7.34 -9 7 C-6.25604436 4.05278838 -3.61662784 1.80831392 0 0 Z " fill="#3D3D3D" transform="translate(456,439)"/>
<path d="M0 0 C0.33 0 0.66 0 1 0 C1.04898437 0.71027344 1.09796875 1.42054688 1.1484375 2.15234375 C1.22320312 3.07144531 1.29796875 3.99054688 1.375 4.9375 C1.44460938 5.85402344 1.51421875 6.77054687 1.5859375 7.71484375 C1.72257812 8.46894531 1.85921875 9.22304688 2 10 C2.66 10.33 3.32 10.66 4 11 C4.1875 13.375 4.1875 13.375 4 16 C3.01 16.66 2.02 17.32 1 18 C-0.2062252 14.38132441 -0.10816918 11.07493749 -0.0625 7.3125 C-0.05798828 6.61060547 -0.05347656 5.90871094 -0.04882812 5.18554688 C-0.03706927 3.45699462 -0.01913454 1.72848635 0 0 Z " fill="#646464" transform="translate(293,283)"/>
<path d="M0 0 C4.9317341 0.44833946 8.3192924 2.86026095 12 6 C12 6.33 12 6.66 12 7 C6.46153846 7.36923077 6.46153846 7.36923077 4.125 5.5 C3.75375 5.005 3.3825 4.51 3 4 C3.33 3.34 3.66 2.68 4 2 C2.68 1.34 1.36 0.68 0 0 Z " fill="#494948" transform="translate(706,685)"/>
<path d="M0 0 C0.99 0 1.98 0 3 0 C3.474375 1.11375 3.94875 2.2275 4.4375 3.375 C5.25306463 5.26710994 6.07856355 7.15712709 7 9 C3.18315774 7.44499019 0.80804268 4.96404505 -2 2 C-1.34 2 -0.68 2 0 2 C0 1.34 0 0.68 0 0 Z " fill="#494949" transform="translate(589,648)"/>
<path d="M0 0 C0.66 0.33 1.32 0.66 2 1 C2 1.99 2 2.98 2 4 C1.38125 4.103125 0.7625 4.20625 0.125 4.3125 C-2.36526484 4.87525373 -2.36526484 4.87525373 -4 8 C-4.66 7.67 -5.32 7.34 -6 7 C-6 6.01 -6 5.02 -6 4 C-3 1.8125 -3 1.8125 0 0 Z " fill="#404040" transform="translate(445,446)"/>
<path d="M0 0 C4.83256305 0.41421969 6.82679218 2.46413986 10 6 C8.3125 6.8125 8.3125 6.8125 6 7 C3.48814606 4.8386373 1.49018781 2.98037561 0 0 Z " fill="#3F3F3E" transform="translate(414,348)"/>
<path d="M0 0 C0.99 0.33 1.98 0.66 3 1 C3 1.66 3 2.32 3 3 C4.32 2.01 5.64 1.02 7 0 C7.66 0.33 8.32 0.66 9 1 C9 1.99 9 2.98 9 4 C8 5 8 5 4.9375 5.0625 C3.968125 5.041875 2.99875 5.02125 2 5 C1.34 3.35 0.68 1.7 0 0 Z " fill="#424141" transform="translate(346,505)"/>
<path d="M0 0 C4.0042343 3.49087093 5.62671065 5.64951939 6 11 C5.34 11 4.68 11 4 11 C2.35 7.7 0.7 4.4 -1 1 C-0.67 0.67 -0.34 0.34 0 0 Z " fill="#383838" transform="translate(721,268)"/>
<path d="M0 0 C3.2542015 2.83430453 4.5206753 4.68607774 5 9 C4.34 8.67 3.68 8.34 3 8 C2.67 8.99 2.34 9.98 2 11 C-1.07692308 5.70769231 -1.07692308 5.70769231 -0.6875 2.125 C-0.460625 1.42375 -0.23375 0.7225 0 0 Z " fill="#494948" transform="translate(722,697)"/>
<path d="M0 0 C-0.185625 0.598125 -0.37125 1.19625 -0.5625 1.8125 C-1.22093687 4.16408762 -1.22093687 4.16408762 0 7 C-3.36720387 5.60667426 -4.9859524 4.0210714 -7 1 C-4.53721199 -0.231394 -2.7204945 -0.07159196 0 0 Z " fill="#474647" transform="translate(496,568)"/>
<path d="M0 0 C4.83256305 0.41421969 6.82679218 2.46413986 10 6 C6.6875 5.8125 6.6875 5.8125 3 5 C1.0625 2.4375 1.0625 2.4375 0 0 Z " fill="#40403F" transform="translate(400,338)"/>
<path d="M0 0 C0.66 0.33 1.32 0.66 2 1 C-0.52788007 3.79872437 -2.20411134 5.45773019 -6 6 C-6.66 5.01 -7.32 4.02 -8 3 C-6.865625 2.690625 -5.73125 2.38125 -4.5625 2.0625 C-1.21224901 1.37075469 -1.21224901 1.37075469 0 0 Z " fill="#383737" transform="translate(345,550)"/>
<path d="M0 0 C-2.77280706 3.08089673 -5.06326356 4.68775452 -9 6 C-9 4.68 -9 3.36 -9 2 C-5.5647952 -0.29013653 -4.014669 -0.17842973 0 0 Z " fill="#3F3F3F" transform="translate(382,505)"/>
<path d="M0 0 C0.66 0.33 1.32 0.66 2 1 C-0.80804268 3.96404505 -3.18315774 6.44499019 -7 8 C-7.66 7.34 -8.32 6.68 -9 6 C-6.03 4.02 -3.06 2.04 0 0 Z " fill="#413F3F" transform="translate(364,498)"/>
<path d="M0 0 C1.32 0.33 2.64 0.66 4 1 C0.87378374 4.39417765 -1.56541027 6.6062718 -6 8 C-5.67 7.01 -5.34 6.02 -5 5 C-4.01 5 -3.02 5 -2 5 C-1.34 3.35 -0.68 1.7 0 0 Z " fill="#424141" transform="translate(407,485)"/>
<path d="M0 0 C0.33 0.99 0.66 1.98 1 3 C1.66 2.34 2.32 1.68 3 1 C2.29445932 4.66881155 0.72264494 7.70450534 -1 11 C-1.33 11 -1.66 11 -2 11 C-2.25 3.375 -2.25 3.375 0 0 Z " fill="#494848" transform="translate(443,556)"/>
<path d="M0 0 C4.83256305 0.41421969 6.82679218 2.46413986 10 6 C6.62972148 6 5.93297304 5.50175992 3.3125 3.5625 C2.68988281 3.11003906 2.06726563 2.65757812 1.42578125 2.19140625 C0.95527344 1.79824219 0.48476563 1.40507812 0 1 C0 0.67 0 0.34 0 0 Z " fill="#494949" transform="translate(438,375)"/>
<path d="M0 0 C3.87915244 0.57468925 6.14756605 2.37884447 9 5 C9.33 5.99 9.66 6.98 10 8 C4.98886765 6.5682479 3.05530451 4.01554307 0 0 Z " fill="#454443" transform="translate(302,314)"/>
<path d="M0 0 C3.465 1.98 3.465 1.98 7 4 C7 4.99 7 5.98 7 7 C4 7 4 7 2.3125 5.5 C1.879375 5.005 1.44625 4.51 1 4 C1.33 3.34 1.66 2.68 2 2 C1.34 2 0.68 2 0 2 C0 1.34 0 0.68 0 0 Z " fill="#474645" transform="translate(367,313)"/>
<path d="M0 0 C-1.375 1.5 -1.375 1.5 -3 3 C-3.66 3 -4.32 3 -5 3 C-5.33 3.99 -5.66 4.98 -6 6 C-6.66 5.67 -7.32 5.34 -8 5 C-8 4.01 -8 3.02 -8 2 C-3.71900826 -1.23966942 -3.71900826 -1.23966942 0 0 Z " fill="#444344" transform="translate(316,258)"/>
<path d="M0 0 C4.28806873 0.47645208 6.26647487 1.65902484 9 5 C9 5.66 9 6.32 9 7 C5.18315774 5.44499019 2.80804268 2.96404505 0 0 Z " fill="#41403F" transform="translate(596,657)"/>
<path d="M0 0 C2.375 0.3125 2.375 0.3125 5 1 C5.66 1.99 6.32 2.98 7 4 C3.98968256 4.93423645 3.13349732 5.04449911 0 4 C0 2.68 0 1.36 0 0 Z " fill="#3A3A39" transform="translate(496,556)"/>
<path d="M0 0 C0.66 0.33 1.32 0.66 2 1 C-0.25740623 3.33524782 -2.2805761 5.18705073 -5 7 C-6.32 6.67 -7.64 6.34 -9 6 C-6.03 4.02 -3.06 2.04 0 0 Z " fill="#444444" transform="translate(417,464)"/>
<path d="M0 0 C-4.455 2.97 -4.455 2.97 -9 6 C-9.66 5.67 -10.32 5.34 -11 5 C-4.36842105 -2.18421053 -4.36842105 -2.18421053 0 0 Z " fill="#515050" transform="translate(452,461)"/>
<path d="M0 0 C4.28477792 2.30718811 7.72291137 4.32966073 11 8 C4.35384615 6.52307692 4.35384615 6.52307692 2.5625 3.875 C2.376875 3.25625 2.19125 2.6375 2 2 C1.34 2 0.68 2 0 2 C0 1.34 0 0.68 0 0 Z " fill="#535252" transform="translate(456,376)"/>
<path d="M0 0 C1.98 0 3.96 0 6 0 C3.22719294 3.08089673 0.93673644 4.68775452 -3 6 C-2.01 4.02 -1.02 2.04 0 0 Z " fill="#413F3F" transform="translate(584,369)"/>
<path d="M0 0 C4.83256305 0.41421969 6.82679218 2.46413986 10 6 C6.62972148 6 5.93297304 5.50175992 3.3125 3.5625 C2.68988281 3.11003906 2.06726563 2.65757812 1.42578125 2.19140625 C0.95527344 1.79824219 0.48476563 1.40507812 0 1 C0 0.67 0 0.34 0 0 Z " fill="#474645" transform="translate(375,330)"/>
<path d="M0 0 C1.98 0 3.96 0 6 0 C6.99 1.98 7.98 3.96 9 6 C8.401875 5.67 7.80375 5.34 7.1875 5 C4.94613529 3.79212012 4.94613529 3.79212012 2 4 C1.34 3.67 0.68 3.34 0 3 C0 2.01 0 1.02 0 0 Z " fill="#494849" transform="translate(666,314)"/>
<path d="M0 0 C2.00720923 0.28674418 4.0085944 0.61866701 6 1 C5.67 1.66 5.34 2.32 5 3 C4.34 3 3.68 3 3 3 C2.01 5.31 1.02 7.62 0 10 C-1.07193479 6.78419562 -1.14636054 4.36629251 -1 1 C-0.67 0.67 -0.34 0.34 0 0 Z " fill="#4F4E4D" transform="translate(362,295)"/>
<path d="M0 0 C0.33 0 0.66 0 1 0 C1 1.98 1 3.96 1 6 C-0.98 6.99 -0.98 6.99 -3 8 C-3 3.75589918 -2.68429577 3.00641127 0 0 Z " fill="#3B3B3C" transform="translate(374,655)"/>
<path d="M0 0 C1.32 0 2.64 0 4 0 C2.8141763 3.37503669 1.72426311 5.64722731 -1 8 C-1.625 5.6875 -1.625 5.6875 -2 3 C-1.34 2.01 -0.68 1.02 0 0 Z " fill="#464545" transform="translate(418,600)"/>
<path d="M0 0 C0.33 0.66 0.66 1.32 1 2 C1.66 2 2.32 2 3 2 C2.34 3.65 1.68 5.3 1 7 C0.01 7 -0.98 7 -2 7 C-2 3.89448334 -1.4606285 2.64738916 0 0 Z " fill="#3E3E3E" transform="translate(421,582)"/>
<path d="M0 0 C0.33 0.66 0.66 1.32 1 2 C0.00390625 4.1640625 0.00390625 4.1640625 -1.4375 6.625 C-1.91058594 7.44226563 -2.38367188 8.25953125 -2.87109375 9.1015625 C-3.24363281 9.72804688 -3.61617188 10.35453125 -4 11 C-5.04528847 7.76591956 -5.06464549 7.15699619 -3.6875 3.8125 C-2 1 -2 1 0 0 Z " fill="#4A4A4A" transform="translate(436,574)"/>
<path d="M0 0 C0.66 0.33 1.32 0.66 2 1 C0.02 3.31 -1.96 5.62 -4 8 C-4.66 7.67 -5.32 7.34 -6 7 C-5.8125 5.1875 -5.8125 5.1875 -5 3 C-2.5625 1.1875 -2.5625 1.1875 0 0 Z " fill="#454645" transform="translate(548,379)"/>
<path d="M0 0 C3.35620271 1.38877354 5.07298728 2.91677965 7 6 C7 6.66 7 7.32 7 8 C3.34683329 6.75023244 2.21934164 6.32901247 0 3 C0 2.01 0 1.02 0 0 Z " fill="#444443" transform="translate(396,342)"/>
<path d="M0 0 C0.99 0.33 1.98 0.66 3 1 C0.36 2.98 -2.28 4.96 -5 7 C-5.66 6.67 -6.32 6.34 -7 6 C-4.74259377 3.66475218 -2.7194239 1.81294927 0 0 Z " fill="#484847" transform="translate(350,316)"/>
<path d="M0 0 C0.6875 1.625 0.6875 1.625 1 4 C-0.4375 7.25 -0.4375 7.25 -2 10 C-2.99 10 -3.98 10 -5 10 C-3.66511872 6.40608886 -2.03977277 3.24509304 0 0 Z " fill="#4B4A49" transform="translate(427,572)"/>
<path d="M0 0 C2.64 1.98 5.28 3.96 8 6 C6.68 6.33 5.36 6.66 4 7 C4 6.34 4 5.68 4 5 C2.35 4.67 0.7 4.34 -1 4 C-0.67 2.68 -0.34 1.36 0 0 Z " fill="#424141" transform="translate(473,535)"/>
<path d="M0 0 C0.99 0.33 1.98 0.66 3 1 C3 1.66 3 2.32 3 3 C2.34 3 1.68 3 1 3 C0.67 4.65 0.34 6.3 0 8 C-0.99 8.33 -1.98 8.66 -3 9 C-2.44271087 5.65626525 -1.64826111 2.96687001 0 0 Z " fill="#404040" transform="translate(463,473)"/>
<path d="M0 0 C1.98 0 3.96 0 6 0 C3.22719294 3.08089673 0.93673644 4.68775452 -3 6 C-2.01 4.02 -1.02 2.04 0 0 Z " fill="#434242" transform="translate(424,474)"/>
<path d="M0 0 C2.875 -0.1875 2.875 -0.1875 6 0 C6.66 0.99 7.32 1.98 8 3 C7.67 3.66 7.34 4.32 7 5 C3.34683329 3.75023244 2.21934164 3.32901247 0 0 Z " fill="#424242" transform="translate(475,401)"/>
<path d="M0 0 C2.875 -0.1875 2.875 -0.1875 6 0 C6.66 0.99 7.32 1.98 8 3 C7.67 3.66 7.34 4.32 7 5 C3.34683329 3.75023244 2.21934164 3.32901247 0 0 Z " fill="#464646" transform="translate(468,396)"/>
<path d="M0 0 C0.33 0.66 0.66 1.32 1 2 C0.06553465 4.03144641 -0.93224776 6.03533587 -2 8 C-2.99 7.67 -3.98 7.34 -5 7 C-3.70700306 4.11562221 -2.34058637 2.12780579 0 0 Z " fill="#414140" transform="translate(727,729)"/>
<path d="M0 0 C2.86724686 0.57344937 3.8614515 0.8614515 6 3 C5.625 5.125 5.625 5.125 5 7 C3.29115995 5.37660195 1.62553283 3.70680947 0 2 C0 1.34 0 0.68 0 0 Z " fill="#353535" transform="translate(716,692)"/>
<path d="M0 0 C2 4 2 4 1.3125 6.6875 C0 9 0 9 -3 10 C-2.01 6.7 -1.02 3.4 0 0 Z " fill="#3E3E3E" transform="translate(457,487)"/>
<path d="M0 0 C1.24727575 2.4945515 0.88934597 3.39371494 0.25 6.0625 C0.09015625 6.77535156 -0.0696875 7.48820312 -0.234375 8.22265625 C-0.61335938 9.10244141 -0.61335938 9.10244141 -1 10 C-1.99 10.33 -2.98 10.66 -4 11 C-3.39301257 6.87248551 -1.96189209 3.6678852 0 0 Z " fill="#4C4C4C" transform="translate(474,447)"/>
<path d="M0 0 C-2.35277269 2.72426311 -4.62496331 3.8141763 -8 5 C-8 3.68 -8 2.36 -8 1 C-5.29120665 -0.35439668 -2.99066732 -0.06501451 0 0 Z " fill="#454545" transform="translate(469,449)"/>
<path d="M0 0 C0.33 0.99 0.66 1.98 1 3 C-0.9375 6.1875 -0.9375 6.1875 -3 9 C-3.66 8.01 -4.32 7.02 -5 6 C-4.34 4.68 -3.68 3.36 -3 2 C-2.67 2.33 -2.34 2.66 -2 3 C-1.34 2.01 -0.68 1.02 0 0 Z " fill="#363637" transform="translate(302,269)"/>
<path d="M0 0 C0.33 0.66 0.66 1.32 1 2 C-0.25 5.5625 -0.25 5.5625 -2 9 C-2.99 9.33 -3.98 9.66 -5 10 C-3.84414715 6.08788267 -2.64465038 3.1254959 0 0 Z " fill="#282727" transform="translate(431,581)"/>
<path d="M0 0 C3.36720387 1.39332574 4.9859524 2.9789286 7 6 C6.67 6.66 6.34 7.32 6 8 C4.0625 7.25 4.0625 7.25 2 6 C1.3125 4 1.3125 4 1 2 C0.67 1.34 0.34 0.68 0 0 Z " fill="#525151" transform="translate(521,575)"/>
<path d="M0 0 C0.66 0.33 1.32 0.66 2 1 C-1.465 3.97 -1.465 3.97 -5 7 C-5 5.68 -5 4.36 -5 3 C-2.625 1.1875 -2.625 1.1875 0 0 Z " fill="#282829" transform="translate(438,516)"/>
<path d="M0 0 C0.66 0.33 1.32 0.66 2 1 C1.34 2.32 0.68 3.64 0 5 C-1.98 5 -3.96 5 -6 5 C-2.25 1.125 -2.25 1.125 0 0 Z " fill="#494848" transform="translate(389,482)"/>
<path d="M0 0 C1.125 1.6875 1.125 1.6875 2 4 C1.3125 6.6875 1.3125 6.6875 0 9 C-0.99 9.33 -1.98 9.66 -3 10 C-2.39009109 6.44219804 -1.4216319 3.3171411 0 0 Z " fill="#4A494A" transform="translate(469,458)"/>
<path d="M0 0 C-1.28524261 0.86380259 -2.57842419 1.71580369 -3.875 2.5625 C-4.59429688 3.03816406 -5.31359375 3.51382812 -6.0546875 4.00390625 C-6.69664062 4.33261719 -7.33859375 4.66132813 -8 5 C-8.66 4.67 -9.32 4.34 -10 4 C-7.39928297 0.98864344 -3.94054294 -1.97027147 0 0 Z " fill="#4C4C4C" transform="translate(718,318)"/>
<path d="M0 0 C0.66 0.33 1.32 0.66 2 1 C1.4375 2.9375 1.4375 2.9375 0 5 C-3.625 5.75 -3.625 5.75 -7 6 C-4.83312509 3.72478134 -2.54379491 1.84205838 0 0 Z " fill="#484848" transform="translate(657,308)"/>
<path d="M0 0 C0.66 0 1.32 0 2 0 C1.75 2.375 1.75 2.375 1 5 C-1.0625 6.3125 -1.0625 6.3125 -3 7 C-1.125 1.125 -1.125 1.125 0 0 Z " fill="#414040" transform="translate(433,561)"/>
<path d="M0 0 C0.66 0.33 1.32 0.66 2 1 C-0.20927127 4.48832306 -2.08597051 5.73058503 -6 7 C-4.60667426 3.63279613 -3.0210714 2.0140476 0 0 Z " fill="#4C4C4C" transform="translate(438,513)"/>
<path d="M0 0 C3.68754757 0.49831724 5.60490662 1.10067643 8 4 C5.36 3.67 2.72 3.34 0 3 C0 2.01 0 1.02 0 0 Z " fill="#484747" transform="translate(425,356)"/>
<path d="M0 0 C0.33 0.66 0.66 1.32 1 2 C-4.2734375 5.22265625 -4.2734375 5.22265625 -6 6 C-6.66 5.67 -7.32 5.34 -8 5 C-6.29374499 2.21611025 -5.52373261 1.14615794 -2.3125 0.25 C-1.549375 0.1675 -0.78625 0.085 0 0 Z " fill="#282828" transform="translate(681,257)"/>
<path d="M0 0 C3.16115776 1.36983503 3.9927092 1.9890638 6 5 C5.67 5.66 5.34 6.32 5 7 C3.0625 6.3125 3.0625 6.3125 1 5 C0.25 2.375 0.25 2.375 0 0 Z " fill="#4C4B4C" transform="translate(562,609)"/>
<path d="M0 0 C-1.75 2.0625 -1.75 2.0625 -4 4 C-6.25 3.75 -6.25 3.75 -8 3 C-8 2.34 -8 1.68 -8 1 C-5.29120665 -0.35439668 -2.99066732 -0.06501451 0 0 Z " fill="#484848" transform="translate(393,498)"/>
<path d="M0 0 C0.66 0.99 1.32 1.98 2 3 C1.34 3 0.68 3 0 3 C-0.66 4.98 -1.32 6.96 -2 9 C-2.66 7.68 -3.32 6.36 -4 5 C-2.68 3.35 -1.36 1.7 0 0 Z " fill="#5A5959" transform="translate(478,477)"/>
<path d="M0 0 C1.1446875 0.2475 1.1446875 0.2475 2.3125 0.5 C5.03596236 1.09145396 5.03596236 1.09145396 8 1 C8 1.66 8 2.32 8 3 C6.02 3.33 4.04 3.66 2 4 C1.34 2.68 0.68 1.36 0 0 Z " fill="#51504F" transform="translate(520,393)"/>
<path d="M0 0 C1.32 0.33 2.64 0.66 4 1 C1.69 2.65 -0.62 4.3 -3 6 C-3.66 5.67 -4.32 5.34 -5 5 C-4.67 4.34 -4.34 3.68 -4 3 C-3.01 3 -2.02 3 -1 3 C-0.67 2.01 -0.34 1.02 0 0 Z " fill="#515050" transform="translate(625,343)"/>
<path d="M0 0 C1.4540625 0.0309375 1.4540625 0.0309375 2.9375 0.0625 C1.64784824 1.43812854 0.31060707 2.77016393 -1.0625 4.0625 C-1.7225 4.0625 -2.3825 4.0625 -3.0625 4.0625 C-3.3925 3.0725 -3.7225 2.0825 -4.0625 1.0625 C-3.0625 0.0625 -3.0625 0.0625 0 0 Z " fill="#444343" transform="translate(660.0625,319.9375)"/>
<path d="M0 0 C0 3.99904969 -1.72586967 5.80200422 -4 9 C-4.66 8.01 -5.32 7.02 -6 6 C-5.01 5.34 -4.02 4.68 -3 4 C-2.67 3.01 -2.34 2.02 -2 1 C-1.34 0.67 -0.68 0.34 0 0 Z " fill="#5B5A5A" transform="translate(373,672)"/>
<path d="M0 0 C2.0625 0.4375 2.0625 0.4375 4 1 C4 1.99 4 2.98 4 4 C3.01 4 2.02 4 1 4 C0.34 3.01 -0.32 2.02 -1 1 C-0.67 0.67 -0.34 0.34 0 0 Z " fill="#393938" transform="translate(602,643)"/>
<path d="M0 0 C3 1 3 1 4.1875 3.0625 C4.455625 3.701875 4.72375 4.34125 5 5 C4.01 5.495 4.01 5.495 3 6 C1.68 4.68 0.36 3.36 -1 2 C-0.67 1.34 -0.34 0.68 0 0 Z " fill="#3C3B3B" transform="translate(581,642)"/>
<path d="M0 0 C0.75 1.75 0.75 1.75 1 4 C-0.9375 6.25 -0.9375 6.25 -3 8 C-3 4.42424104 -1.91159393 2.94704065 0 0 Z " fill="#474747" transform="translate(408,604)"/>
<path d="M0 0 C2.25 0.25 2.25 0.25 4 1 C2.02 2.32 0.04 3.64 -2 5 C-2.66 4.67 -3.32 4.34 -4 4 C-2.25 1.9375 -2.25 1.9375 0 0 Z " fill="#4F4E4E" transform="translate(397,493)"/>
<path d="M0 0 C0.33 0.66 0.66 1.32 1 2 C1.66 2 2.32 2 3 2 C2.67 3.65 2.34 5.3 2 7 C1.01 7 0.02 7 -1 7 C-1.33 6.34 -1.66 5.68 -2 5 C-1.0625 2.375 -1.0625 2.375 0 0 Z " fill="#424242" transform="translate(482,460)"/>
<path d="M0 0 C0.66 0.33 1.32 0.66 2 1 C0.25 3.0625 0.25 3.0625 -2 5 C-4.25 4.75 -4.25 4.75 -6 4 C-4.02 2.68 -2.04 1.36 0 0 Z " fill="#464646" transform="translate(477,426)"/>
<path d="M0 0 C0.66 0.33 1.32 0.66 2 1 C0.25 3.0625 0.25 3.0625 -2 5 C-4.25 4.75 -4.25 4.75 -6 4 C-4.02 2.68 -2.04 1.36 0 0 Z " fill="#434342" transform="translate(644,317)"/>
<path d="M0 0 C2.64 0 5.28 0 8 0 C8 0.33 8 0.66 8 1 C5.36 1 2.72 1 0 1 C0 0.67 0 0.34 0 0 Z " fill="#585858" transform="translate(688,680)"/>
<path d="M0 0 C2.31 0 4.62 0 7 0 C7 0.33 7 0.66 7 1 C4.69 1 2.38 1 0 1 C0 0.67 0 0.34 0 0 Z " fill="#575655" transform="translate(689,327)"/>
<path d="M0 0 C1.485 0.99 1.485 0.99 3 2 C2.01 2.33 1.02 2.66 0 3 C0 2.01 0 1.02 0 0 Z " fill="#61605F" transform="translate(432,373)"/>
<path d="M0 0 C1.485 0.99 1.485 0.99 3 2 C2.01 2.33 1.02 2.66 0 3 C0 2.01 0 1.02 0 0 Z " fill="#5B5957" transform="translate(489,572)"/>
<path d="M0 0 C0.66 0.33 1.32 0.66 2 1 C1.01 1.66 0.02 2.32 -1 3 C-0.67 2.01 -0.34 1.02 0 0 Z " fill="#605F5E" transform="translate(466,452)"/>
<path d="M0 0 C0.33 0 0.66 0 1 0 C1 1.65 1 3.3 1 5 C0.67 5 0.34 5 0 5 C0 3.35 0 1.7 0 0 Z " fill="#5F5D5C" transform="translate(640,312)"/>
<path d="M0 0 C0.66 0.66 1.32 1.32 2 2 C1.01 2.495 1.01 2.495 0 3 C0 2.01 0 1.02 0 0 Z " fill="#616061" transform="translate(368,658)"/>
<path d="M0 0 C0.99 0.33 1.98 0.66 3 1 C2.01 1 1.02 1 0 1 C0 0.67 0 0.34 0 0 Z " fill="#5C5A58" transform="translate(520,598)"/>
<path d="M0 0 C0.99 0.495 0.99 0.495 2 1 C1.34 1.66 0.68 2.32 0 3 C0 2.01 0 1.02 0 0 Z " fill="#605E5F" transform="translate(456,433)"/>
<path d="M0 0 C0.99 0 1.98 0 3 0 C2.67 0.66 2.34 1.32 2 2 C1.34 1.34 0.68 0.68 0 0 Z " fill="#5D5C5B" transform="translate(533,384)"/>
<path d="M0 0 C0.99 0.33 1.98 0.66 3 1 C2.01 1 1.02 1 0 1 C0 0.67 0 0.34 0 0 Z " fill="#5A5858" transform="translate(682,325)"/>
<path d="M0 0 C0.33 0.66 0.66 1.32 1 2 C0.01 1.67 -0.98 1.34 -2 1 C-1.34 0.67 -0.68 0.34 0 0 Z " fill="#5D5C5B" transform="translate(310,256)"/>
<path d="M0 0 C0.66 0.66 1.32 1.32 2 2 C1.34 2 0.68 2 0 2 C0 1.34 0 0.68 0 0 Z " fill="#575756" transform="translate(307,749)"/>
<path d="M0 0 C0.33 0.66 0.66 1.32 1 2 C0.34 1.67 -0.32 1.34 -1 1 C-0.67 0.67 -0.34 0.34 0 0 Z " fill="#575657" transform="translate(665,742)"/>
<path d="M0 0 C0.33 0.66 0.66 1.32 1 2 C0.34 1.67 -0.32 1.34 -1 1 C-0.67 0.67 -0.34 0.34 0 0 Z " fill="#5C595A" transform="translate(291,722)"/>
<path d="M0 0 C0.66 0.66 1.32 1.32 2 2 C1.34 2 0.68 2 0 2 C0 1.34 0 0.68 0 0 Z " fill="#5C5B5B" transform="translate(648,702)"/>
<path d="M0 0 C0.66 0.66 1.32 1.32 2 2 C1.34 2 0.68 2 0 2 C0 1.34 0 0.68 0 0 Z " fill="#5E5C5B" transform="translate(616,675)"/>
<path d="M0 0 C0.66 0.66 1.32 1.32 2 2 C1.34 2 0.68 2 0 2 C0 1.34 0 0.68 0 0 Z " fill="#5D5B5B" transform="translate(576,645)"/>
<path d="M0 0 C3 1 3 1 3 1 Z " fill="#605E5D" transform="translate(432,551)"/>
<path d="M0 0 C0.66 0.66 1.32 1.32 2 2 C1.34 2 0.68 2 0 2 C0 1.34 0 0.68 0 0 Z " fill="#5F5D5E" transform="translate(356,542)"/>
<path d="M0 0 C3 1 3 1 3 1 Z " fill="#5F5D5D" transform="translate(312,498)"/>
<path d="M0 0 C3 1 3 1 3 1 Z " fill="#5B5B5B" transform="translate(375,488)"/>
<path d="M0 0 C0.33 0.66 0.66 1.32 1 2 C0.34 1.67 -0.32 1.34 -1 1 C-0.67 0.67 -0.34 0.34 0 0 Z " fill="#636260" transform="translate(409,466)"/>
<path d="M0 0 C0.66 0.66 1.32 1.32 2 2 C1.34 2 0.68 2 0 2 C0 1.34 0 0.68 0 0 Z " fill="#5D5D5D" transform="translate(412,464)"/>
<path d="M0 0 C0.33 0.66 0.66 1.32 1 2 C0.34 1.67 -0.32 1.34 -1 1 C-0.67 0.67 -0.34 0.34 0 0 Z " fill="#626161" transform="translate(433,451)"/>
<path d="" fill="#5B5B5A" transform="translate(0,0)"/>
<path d="" fill="#5F5D5D" transform="translate(0,0)"/>
<path d="M0 0 C3 1 3 1 3 1 Z " fill="#5E5C5D" transform="translate(598,344)"/>
<path d="M0 0 C0.33 0.66 0.66 1.32 1 2 C0.34 1.67 -0.32 1.34 -1 1 C-0.67 0.67 -0.34 0.34 0 0 Z " fill="#5B5958" transform="translate(686,326)"/>
<path d="M0 0 C3 1 3 1 3 1 Z " fill="#5E5B5B" transform="translate(633,320)"/>
<path d="M0 0 C2 1 2 1 2 1 Z " fill="#585856" transform="translate(304,749)"/>
<path d="" fill="#595958" transform="translate(0,0)"/>
<path d="M0 0 C2 1 2 1 2 1 Z " fill="#5A5A5A" transform="translate(656,730)"/>
<path d="M0 0 C2 1 2 1 2 1 Z " fill="#5F605E" transform="translate(363,704)"/>
<path d="" fill="#5D5D5E" transform="translate(0,0)"/>
<path d="" fill="#5F5E5D" transform="translate(0,0)"/>
<path d="M0 0 C2 1 2 1 2 1 Z " fill="#5E5C5B" transform="translate(352,680)"/>
<path d="" fill="#5E5D5C" transform="translate(0,0)"/>
<path d="" fill="#646162" transform="translate(0,0)"/>
<path d="M0 0 C2 1 2 1 2 1 Z " fill="#5A5856" transform="translate(517,568)"/>
<path d="" fill="#5C5A59" transform="translate(0,0)"/>
<path d="M0 0 C2 1 2 1 2 1 Z " fill="#575457" transform="translate(472,559)"/>
<path d="" fill="#5F5E5C" transform="translate(0,0)"/>
<path d="M0 0 C2 1 2 1 2 1 Z " fill="#5F5C5D" transform="translate(432,549)"/>
<path d="M0 0 C2 1 2 1 2 1 Z " fill="#676663" transform="translate(410,521)"/>
<path d="M0 0 C2 1 2 1 2 1 Z " fill="#646261" transform="translate(404,494)"/>
<path d="" fill="#5F5E5C" transform="translate(0,0)"/>
<path d="M0 0 C2 1 2 1 2 1 Z " fill="#636262" transform="translate(433,449)"/>
<path d="M0 0 C2 1 2 1 2 1 Z " fill="#615F60" transform="translate(438,448)"/>
<path d="M0 0 C2 1 2 1 2 1 Z " fill="#5D5C5C" transform="translate(480,416)"/>
<path d="" fill="#605C5E" transform="translate(0,0)"/>
<path d="M0 0 C2 1 2 1 2 1 Z " fill="#62605E" transform="translate(467,398)"/>
<path d="M0 0 C2 1 2 1 2 1 Z " fill="#5D5C5C" transform="translate(508,388)"/>
<path d="" fill="#5D5B5A" transform="translate(0,0)"/>
<path d="" fill="#5D5A5B" transform="translate(0,0)"/>
<path d="" fill="#626161" transform="translate(0,0)"/>
<path d="M0 0 C2 1 2 1 2 1 Z " fill="#5C5B5B" transform="translate(654,282)"/>
<path d="M0 0 C2 1 2 1 2 1 Z " fill="#5A5B57" transform="translate(709,256)"/>
<path d="M0 0 C2 1 2 1 2 1 Z " fill="#5B5A5A" transform="translate(692,252)"/>
<path d="" fill="#3D3E3D" transform="translate(0,0)"/>
<path d="" fill="#454544" transform="translate(0,0)"/>
<path d="" fill="#585856" transform="translate(0,0)"/>
<path d="" fill="#555253" transform="translate(0,0)"/>
<path d="" fill="#585857" transform="translate(0,0)"/>
<path d="" fill="#535252" transform="translate(0,0)"/>
<path d="" fill="#595856" transform="translate(0,0)"/>
<path d="" fill="#5A585A" transform="translate(0,0)"/>
<path d="" fill="#59585A" transform="translate(0,0)"/>
<path d="" fill="#555354" transform="translate(0,0)"/>
<path d="" fill="#545556" transform="translate(0,0)"/>
<path d="" fill="#555455" transform="translate(0,0)"/>
<path d="" fill="#565558" transform="translate(0,0)"/>
<path d="" fill="#585757" transform="translate(0,0)"/>
<path d="" fill="#5B5A5B" transform="translate(0,0)"/>
<path d="" fill="#5B5A5B" transform="translate(0,0)"/>
<path d="" fill="#5B595B" transform="translate(0,0)"/>
<path d="" fill="#5D5E5D" transform="translate(0,0)"/>
<path d="" fill="#5A5C5A" transform="translate(0,0)"/>
<path d="" fill="#5C5B5C" transform="translate(0,0)"/>
<path d="" fill="#5A5A58" transform="translate(0,0)"/>
<path d="" fill="#5D5B5C" transform="translate(0,0)"/>
<path d="" fill="#5E5F5F" transform="translate(0,0)"/>
<path d="" fill="#606162" transform="translate(0,0)"/>
<path d="" fill="#5E5E5D" transform="translate(0,0)"/>
<path d="" fill="#5F5E61" transform="translate(0,0)"/>
<path d="" fill="#5B595A" transform="translate(0,0)"/>
<path d="" fill="#5D5B5A" transform="translate(0,0)"/>
<path d="" fill="#5D5D5C" transform="translate(0,0)"/>
<path d="" fill="#5C5959" transform="translate(0,0)"/>
<path d="" fill="#5E5C5C" transform="translate(0,0)"/>
<path d="" fill="#5E5F5E" transform="translate(0,0)"/>
<path d="" fill="#615F5C" transform="translate(0,0)"/>
<path d="" fill="#5A5A5A" transform="translate(0,0)"/>
<path d="" fill="#5F5E5E" transform="translate(0,0)"/>
<path d="" fill="#595755" transform="translate(0,0)"/>
<path d="" fill="#605E5D" transform="translate(0,0)"/>
<path d="" fill="#635C5D" transform="translate(0,0)"/>
<path d="" fill="#5B5B5C" transform="translate(0,0)"/>
<path d="" fill="#5A5A5B" transform="translate(0,0)"/>
<path d="" fill="#5E6361" transform="translate(0,0)"/>
<path d="" fill="#5A5B5B" transform="translate(0,0)"/>
<path d="" fill="#5D5E5C" transform="translate(0,0)"/>
<path d="" fill="#605C5D" transform="translate(0,0)"/>
<path d="" fill="#5B5C5B" transform="translate(0,0)"/>
<path d="" fill="#5B5858" transform="translate(0,0)"/>
<path d="" fill="#5B5956" transform="translate(0,0)"/>
<path d="" fill="#5F5E5D" transform="translate(0,0)"/>
<path d="" fill="#5F5F5E" transform="translate(0,0)"/>
<path d="" fill="#5B5957" transform="translate(0,0)"/>
<path d="" fill="#5B5A5A" transform="translate(0,0)"/>
<path d="" fill="#5C5C5B" transform="translate(0,0)"/>
<path d="" fill="#5E5C5B" transform="translate(0,0)"/>
<path d="" fill="#606161" transform="translate(0,0)"/>
<path d="" fill="#605F5D" transform="translate(0,0)"/>
<path d="" fill="#616260" transform="translate(0,0)"/>
<path d="" fill="#606161" transform="translate(0,0)"/>
<path d="" fill="#5D5B5B" transform="translate(0,0)"/>
<path d="" fill="#5D5A5C" transform="translate(0,0)"/>
<path d="" fill="#656164" transform="translate(0,0)"/>
<path d="" fill="#5E5D5B" transform="translate(0,0)"/>
<path d="" fill="#5C5A5A" transform="translate(0,0)"/>
<path d="" fill="#5C5B5C" transform="translate(0,0)"/>
<path d="" fill="#5C5A59" transform="translate(0,0)"/>
<path d="" fill="#666663" transform="translate(0,0)"/>
<path d="" fill="#5F5C5D" transform="translate(0,0)"/>
<path d="" fill="#5C5B59" transform="translate(0,0)"/>
<path d="" fill="#605B5B" transform="translate(0,0)"/>
<path d="" fill="#545252" transform="translate(0,0)"/>
<path d="" fill="#5E5C5A" transform="translate(0,0)"/>
<path d="" fill="#5D5B57" transform="translate(0,0)"/>
<path d="" fill="#656464" transform="translate(0,0)"/>
<path d="" fill="#616163" transform="translate(0,0)"/>
<path d="" fill="#636362" transform="translate(0,0)"/>
<path d="" fill="#5D5B5B" transform="translate(0,0)"/>
<path d="" fill="#5B5658" transform="translate(0,0)"/>
<path d="" fill="#656464" transform="translate(0,0)"/>
<path d="" fill="#5E5A59" transform="translate(0,0)"/>
<path d="" fill="#5C5C5A" transform="translate(0,0)"/>
<path d="" fill="#5E5959" transform="translate(0,0)"/>
<path d="" fill="#575352" transform="translate(0,0)"/>
<path d="" fill="#5E5B59" transform="translate(0,0)"/>
<path d="" fill="#666465" transform="translate(0,0)"/>
<path d="" fill="#5F5E5C" transform="translate(0,0)"/>
<path d="" fill="#686667" transform="translate(0,0)"/>
<path d="" fill="#676766" transform="translate(0,0)"/>
<path d="" fill="#5D5B5E" transform="translate(0,0)"/>
<path d="" fill="#5F5C5A" transform="translate(0,0)"/>
<path d="" fill="#5D5C5C" transform="translate(0,0)"/>
<path d="" fill="#5C595A" transform="translate(0,0)"/>
<path d="" fill="#575755" transform="translate(0,0)"/>
<path d="" fill="#5D5A58" transform="translate(0,0)"/>
<path d="" fill="#5C5859" transform="translate(0,0)"/>
<path d="" fill="#646260" transform="translate(0,0)"/>
<path d="" fill="#636261" transform="translate(0,0)"/>
<path d="" fill="#595857" transform="translate(0,0)"/>
<path d="" fill="#555252" transform="translate(0,0)"/>
<path d="" fill="#5A5554" transform="translate(0,0)"/>
<path d="" fill="#5C5858" transform="translate(0,0)"/>
<path d="" fill="#5B5856" transform="translate(0,0)"/>
<path d="" fill="#5E5C5C" transform="translate(0,0)"/>
<path d="" fill="#615F60" transform="translate(0,0)"/>
<path d="" fill="#605C5D" transform="translate(0,0)"/>
<path d="" fill="#615F5E" transform="translate(0,0)"/>
<path d="" fill="#504F51" transform="translate(0,0)"/>
<path d="" fill="#595656" transform="translate(0,0)"/>
<path d="" fill="#5E5D5C" transform="translate(0,0)"/>
<path d="" fill="#5E5C5B" transform="translate(0,0)"/>
<path d="" fill="#5E5D5D" transform="translate(0,0)"/>
<path d="" fill="#60605E" transform="translate(0,0)"/>
<path d="" fill="#5A5759" transform="translate(0,0)"/>
<path d="" fill="#61615C" transform="translate(0,0)"/>
<path d="" fill="#635F61" transform="translate(0,0)"/>
<path d="" fill="#565653" transform="translate(0,0)"/>
<path d="" fill="#666263" transform="translate(0,0)"/>
<path d="" fill="#666463" transform="translate(0,0)"/>
<path d="" fill="#646663" transform="translate(0,0)"/>
<path d="" fill="#676564" transform="translate(0,0)"/>
<path d="" fill="#686664" transform="translate(0,0)"/>
<path d="" fill="#666666" transform="translate(0,0)"/>
<path d="" fill="#686565" transform="translate(0,0)"/>
<path d="" fill="#686766" transform="translate(0,0)"/>
<path d="" fill="#666867" transform="translate(0,0)"/>
<path d="" fill="#666565" transform="translate(0,0)"/>
<path d="" fill="#686263" transform="translate(0,0)"/>
<path d="" fill="#646564" transform="translate(0,0)"/>
<path d="" fill="#676564" transform="translate(0,0)"/>
<path d="" fill="#62615E" transform="translate(0,0)"/>
<path d="" fill="#5C5A5B" transform="translate(0,0)"/>
<path d="" fill="#5E5E5C" transform="translate(0,0)"/>
<path d="" fill="#61625D" transform="translate(0,0)"/>
<path d="" fill="#5B5759" transform="translate(0,0)"/>
<path d="" fill="#636061" transform="translate(0,0)"/>
<path d="" fill="#5E5A5A" transform="translate(0,0)"/>
<path d="" fill="#5A5759" transform="translate(0,0)"/>
<path d="" fill="#5E5D5E" transform="translate(0,0)"/>
<path d="" fill="#61605F" transform="translate(0,0)"/>
<path d="" fill="#5D5B5B" transform="translate(0,0)"/>
<path d="" fill="#5A5858" transform="translate(0,0)"/>
<path d="" fill="#5E5F5F" transform="translate(0,0)"/>
<path d="" fill="#656062" transform="translate(0,0)"/>
<path d="" fill="#646060" transform="translate(0,0)"/>
<path d="" fill="#605D5C" transform="translate(0,0)"/>
<path d="" fill="#605F60" transform="translate(0,0)"/>
<path d="" fill="#61605E" transform="translate(0,0)"/>
<path d="" fill="#5F605F" transform="translate(0,0)"/>
<path d="" fill="#605D60" transform="translate(0,0)"/>
<path d="" fill="#615F62" transform="translate(0,0)"/>
<path d="" fill="#605F5F" transform="translate(0,0)"/>
<path d="" fill="#605F5D" transform="translate(0,0)"/>
<path d="" fill="#615E60" transform="translate(0,0)"/>
<path d="" fill="#606062" transform="translate(0,0)"/>
<path d="" fill="#5D5D5D" transform="translate(0,0)"/>
<path d="" fill="#636160" transform="translate(0,0)"/>
<path d="" fill="#66615F" transform="translate(0,0)"/>
<path d="" fill="#625F5E" transform="translate(0,0)"/>
<path d="" fill="#606260" transform="translate(0,0)"/>
<path d="" fill="#5A5B57" transform="translate(0,0)"/>
<path d="" fill="#5C5B5B" transform="translate(0,0)"/>
<path d="" fill="#636260" transform="translate(0,0)"/>
<path d="" fill="#636161" transform="translate(0,0)"/>
<path d="" fill="#636162" transform="translate(0,0)"/>
<path d="" fill="#585756" transform="translate(0,0)"/>
<path d="" fill="#5D5A5A" transform="translate(0,0)"/>
<path d="" fill="#5C5B59" transform="translate(0,0)"/>
<path d="" fill="#5C5959" transform="translate(0,0)"/>
<path d="" fill="#5B5A5C" transform="translate(0,0)"/>
<path d="" fill="#5D5D5C" transform="translate(0,0)"/>
<path d="" fill="#5F5C5D" transform="translate(0,0)"/>
<path d="" fill="#545454" transform="translate(0,0)"/>
<path d="" fill="#5A595A" transform="translate(0,0)"/>
<path d="" fill="#5D5D5D" transform="translate(0,0)"/>
<path d="" fill="#5C5C5A" transform="translate(0,0)"/>
<path d="" fill="#605E5F" transform="translate(0,0)"/>
<path d="" fill="#625F61" transform="translate(0,0)"/>
<path d="" fill="#5E6061" transform="translate(0,0)"/>
<path d="" fill="#615E61" transform="translate(0,0)"/>
<path d="" fill="#615E61" transform="translate(0,0)"/>
<path d="" fill="#615D5E" transform="translate(0,0)"/>
<path d="" fill="#595756" transform="translate(0,0)"/>
<path d="" fill="#61615F" transform="translate(0,0)"/>
<path d="" fill="#626363" transform="translate(0,0)"/>
<path d="" fill="#615F5F" transform="translate(0,0)"/>
<path d="" fill="#615F5E" transform="translate(0,0)"/>
<path d="" fill="#616161" transform="translate(0,0)"/>
<path d="" fill="#626261" transform="translate(0,0)"/>
<path d="" fill="#606062" transform="translate(0,0)"/>
<path d="" fill="#636360" transform="translate(0,0)"/>
<path d="" fill="#636161" transform="translate(0,0)"/>
<path d="" fill="#585556" transform="translate(0,0)"/>
<path d="" fill="#5D5B5A" transform="translate(0,0)"/>
<path d="" fill="#626161" transform="translate(0,0)"/>
<path d="" fill="#656262" transform="translate(0,0)"/>
<path d="" fill="#656564" transform="translate(0,0)"/>
<path d="" fill="#615F5E" transform="translate(0,0)"/>
<path d="" fill="#60605F" transform="translate(0,0)"/>
<path d="" fill="#636260" transform="translate(0,0)"/>
<path d="" fill="#60605E" transform="translate(0,0)"/>
<path d="" fill="#635F5E" transform="translate(0,0)"/>
<path d="" fill="#5F5E5F" transform="translate(0,0)"/>
<path d="" fill="#625D60" transform="translate(0,0)"/>
<path d="" fill="#636260" transform="translate(0,0)"/>
<path d="" fill="#636461" transform="translate(0,0)"/>
<path d="" fill="#5F5C5C" transform="translate(0,0)"/>
<path d="" fill="#646162" transform="translate(0,0)"/>
<path d="" fill="#5D5B5D" transform="translate(0,0)"/>
<path d="" fill="#636261" transform="translate(0,0)"/>
<path d="" fill="#5F5C5D" transform="translate(0,0)"/>
<path d="" fill="#656462" transform="translate(0,0)"/>
<path d="" fill="#63605E" transform="translate(0,0)"/>
<path d="" fill="#646162" transform="translate(0,0)"/>
<path d="" fill="#605E60" transform="translate(0,0)"/>
<path d="" fill="#5E5C5B" transform="translate(0,0)"/>
<path d="" fill="#5E5E5E" transform="translate(0,0)"/>
<path d="" fill="#625B5F" transform="translate(0,0)"/>
<path d="" fill="#5D5D5C" transform="translate(0,0)"/>
<path d="" fill="#5F6060" transform="translate(0,0)"/>
<path d="" fill="#5D5C5A" transform="translate(0,0)"/>
<path d="" fill="#61605D" transform="translate(0,0)"/>
<path d="" fill="#5D5A57" transform="translate(0,0)"/>
<path d="" fill="#5B5A59" transform="translate(0,0)"/>
<path d="" fill="#5D5859" transform="translate(0,0)"/>
<path d="" fill="#5B5857" transform="translate(0,0)"/>
<path d="" fill="#5C5959" transform="translate(0,0)"/>
<path d="" fill="#5F5C5C" transform="translate(0,0)"/>
<path d="" fill="#61615D" transform="translate(0,0)"/>
<path d="" fill="#5C5958" transform="translate(0,0)"/>
<path d="" fill="#585856" transform="translate(0,0)"/>
<path d="" fill="#575453" transform="translate(0,0)"/>
<path d="" fill="#5E5E5B" transform="translate(0,0)"/>
<path d="" fill="#5F5C5C" transform="translate(0,0)"/>
<path d="" fill="#5D5C5B" transform="translate(0,0)"/>
<path d="" fill="#615E5C" transform="translate(0,0)"/>
<path d="" fill="#645E5F" transform="translate(0,0)"/>
<path d="" fill="#5E5D5E" transform="translate(0,0)"/>
<path d="" fill="#504F4F" transform="translate(0,0)"/>
<path d="" fill="#656162" transform="translate(0,0)"/>
<path d="" fill="#646263" transform="translate(0,0)"/>
<path d="" fill="#656365" transform="translate(0,0)"/>
<path d="" fill="#676668" transform="translate(0,0)"/>
<path d="" fill="#676768" transform="translate(0,0)"/>
<path d="" fill="#6A6968" transform="translate(0,0)"/>
<path d="" fill="#6B6867" transform="translate(0,0)"/>
<path d="" fill="#646361" transform="translate(0,0)"/>
<path d="" fill="#636361" transform="translate(0,0)"/>
<path d="" fill="#606160" transform="translate(0,0)"/>
<path d="" fill="#5E5B5B" transform="translate(0,0)"/>
<path d="" fill="#605D5D" transform="translate(0,0)"/>
<path d="" fill="#615F61" transform="translate(0,0)"/>
<path d="" fill="#5B5C5C" transform="translate(0,0)"/>
<path d="" fill="#5B5A57" transform="translate(0,0)"/>
<path d="" fill="#615E5E" transform="translate(0,0)"/>
<path d="" fill="#5D5D5C" transform="translate(0,0)"/>
<path d="" fill="#595657" transform="translate(0,0)"/>
<path d="" fill="#5D5B5B" transform="translate(0,0)"/>
<path d="" fill="#5A585A" transform="translate(0,0)"/>
<path d="" fill="#5D5B5B" transform="translate(0,0)"/>

    </g>
    
    <!-- Text -->
    <g transform="translate(600, 310)">
        <text x="0" y="0" font-family="'Segoe UI', Roboto, Helvetica, Arial, sans-serif" font-weight="900" font-size="72" fill="#ffffff" text-anchor="middle" letter-spacing="12" filter="url(#shadow)">KAUTILYA</text>
        <text x="0" y="45" font-family="'Segoe UI', Roboto, Helvetica, Arial, sans-serif" font-weight="600" font-size="22" fill="#94a3b8" text-anchor="middle" letter-spacing="6">ENTERPRISE DECISION INTELLIGENCE</text>
    </g>
    
    <!-- Badge -->
    <g transform="translate(500, 380)">
        <rect width="200" height="34" rx="17" fill="#1e293b" fill-opacity="0.8" stroke="#334155" stroke-width="1.5" filter="url(#shadow)"/>
        <text x="100" y="22" font-family="'Segoe UI', Roboto, Helvetica, Arial, sans-serif" font-size="13" font-weight="bold" fill="#38bdf8" text-anchor="middle" letter-spacing="2">INTEGRATED WITH YONO</text>
    </g>
</svg>